<?xml version="1.0" encoding="utf-8"?>
<!-- Generator: Adobe Illustrator 23.0.3, SVG Export Plug-In . SVG Version: 6.00 Build 0)  -->
<svg version="1.1" id="Capa_1" xmlns="http://www.w3.org/2000/svg" xmlns:xlink="http://www.w3.org/1999/xlink" x="0px" y="0px"
	 viewBox="0 0 464 464" style="enable-background:new 0 0 464 464;" xml:space="preserve">
<style type="text/css">
	.st0{fill:#FCB501;}
</style>
<path class="st0" d="M200,120c0-7.8,0.7-15.5,2.1-23.2c-4-0.5-8-0.8-12.1-0.8c-19.7,0-39.2,4.9-56.6,14.2c-3.9,2.1-8.7,0.6-10.8-3.3
	c-1-1.9-1.2-4-0.6-6c1.3-4.5,3-8.8,5-13.1l-9.2-18.3L93.6,93.7c-1,1-2.1,1.7-3.5,2L40,110v50c-0.1,53,42.8,95.9,95.8,96
	c38.6,0,73.5-23.1,88.5-58.7C208.4,174.6,200,147.7,200,120z M88,144h16v16H88V144z M136,224.8c-16.8,0-32.9-6.5-44.8-18.3
	l11.2-11.4c18.9,18.5,49.3,18.2,67.9-0.7l11.4,11.2C169.7,217.9,153.2,224.9,136,224.8z M184,160h-16v-16h16V160z M168,296v-28.8
	c-10.4,3.2-21.2,4.8-32,4.8s-21.6-1.6-32-4.7V296c0,5.3-2.6,10.3-7,13.2c2.2,6.4,8.3,10.7,15,10.8h48c6.8,0,12.8-4.3,15-10.8
	C170.6,306.3,168,301.3,168,296z M364,3.3C354.8,1.1,345.4,0,336,0c-37.4-0.1-72.7,17.4-95.3,47.3c-1.9,2.5-5.1,3.7-8.2,2.9
	c-6-1.5-12.2-2.2-18.4-2.2c-28.4,0.1-54.6,15.2-69,39.7c14.5-5.1,29.7-7.7,45-7.7c7.7,0.1,15.4,0.8,23,2.2c4.4,0.8,7.3,4.9,6.5,9.3
	c0,0.2-0.1,0.3-0.1,0.5c-15.4,64.4,24.2,129.2,88.7,144.6s129.2-24.2,144.6-88.7S428.4,18.8,364,3.3z M328,16h16v16h-16V16z M256,64
	V48h8v-8h16v8h8v16h-8v8h-16v-8H256z M389.8,213.5c-1.5,1.6-3.6,2.5-5.9,2.5h-96c-4.4,0-8-3.6-8-8c0-0.2,0-0.4,0-0.6l8-112
	c0.3-4.2,3.8-7.4,8-7.4h8v-8c0-17.7,14.3-32,32-32s32,14.3,32,32v8h8c4.2,0,7.7,3.2,8,7.4l8,112
	C392.1,209.7,391.4,211.8,389.8,213.5z M400,72h-16V56h16V72z M440,120h-8v8h-16v-8h-8v-16h8v-8h16v8h8V120z M368.5,104h-65.1
	l-6.9,96h78.8L368.5,104z M336,64c-8.8,0-16,7.2-16,16v8h32v-8C352,71.2,344.8,64,336,64z M215,370.3l-3.4-3.4
	c-2.7-2.7-6.9-3.1-10.1-1l-13.1,8.7c-2.7,1.8-6.2,1.8-8.9,0l-13.1-8.7c-1.3-0.9-2.9-1.3-4.4-1.3c-2.1,0-4.2,0.8-5.7,2.3l-3.4,3.4
	c-3.1,3.1-3.1,8.2,0,11.3l31,31l31-31C218.1,378.5,218.1,373.5,215,370.3z M226.5,312h-35.6c-3.6,14.1-16.3,23.9-30.9,24h-48
	c-14.5-0.1-27.2-9.9-30.9-24H45.5C24.8,312,8,328.8,8,349.5V464h256V349.5C264,328.8,247.2,312,226.5,312z M226.3,393l-36.7,36.7
	c-3.1,3.1-8.2,3.1-11.3,0L141.6,393c-9.4-9.4-9.4-24.6,0-33.9l3.4-3.4c8.1-8.1,20.8-9.3,30.3-3l8.6,5.8l8.6-5.8
	c9.5-6.3,22.2-5.1,30.3,3l3.4,3.4C235.7,368.4,235.7,383.6,226.3,393z M176,0H96C65.1,0,40,25.1,40,56v37.4l43.8-12.5l30.5-30.5
	c1.8-1.8,4.4-2.6,6.9-2.2c2.5,0.4,4.7,2,5.9,4.3l9.5,19C154.7,46.8,183.4,32.1,214,32c4.3,0,8.6,0.4,12.9,1C217.9,13,198,0.1,176,0z
	"/>
</svg>
