<?xml version="1.0" encoding="UTF-8" standalone="no"?> <svg height="512pt" viewBox="0 0 512 512" width="512pt" xmlns="http://www.w3.org/2000/svg"><path d="m160.800781 181-40.800781 31h-30l-40.800781-31 12.902343-91h85.796876zm0 0" fill="#fdbf00"/><path d="m120 212h-15v-122h42.898438l12.902343 91zm0 0" fill="#ff9100"/><path d="m180 314.898438h-150l19.199219-133.898438h111.601562zm0 0" fill="#f77e00"/><path d="m180 314.898438h-75v-133.898438h55.800781zm0 0" fill="#d55f05"/><path d="m270 302v180l-30 30h-30l-30-30h-90l-30 30h-60v-210zm0 0" fill="#e3eeff"/><path d="m270 302v180l-30 30h-30l-30-30h-75v-180zm0 0" fill="#c4d9f2"/><path d="m210 0v45c0 41.398438-33.601562 75-75 75h-60c-41.398438 0-75-33.601562-75-75v-45h45c24.601562 0 46.199219 12 60 30.597656 13.800781-18.597656 35.398438-30.597656 60-30.597656zm0 0" fill="#daf569"/><path d="m210 0v45c0 41.398438-33.601562 75-75 75h-30v-89.402344c13.800781-18.597656 35.398438-30.597656 60-30.597656zm0 0" fill="#b9df47"/><path d="m512 362v-52.5l-150-112.5v90l-122-90v315h272v-60l-30-30v-30zm0 0" fill="#c4d9f2"/><path d="m302 362h210v90h-210zm0 0" fill="#5b5555"/><g fill="#73e6d3"><path d="m332 392h30v30h-30zm0 0"/><path d="m392 392h30v30h-30zm0 0"/><path d="m452 392h30v30h-30zm0 0"/></g><path d="m210 362v150h-30l-30-30h-30l-30 30h-30v-150zm0 0" fill="#766e6e"/><path d="m105 362h105v150h-30l-30-30h-30l-15 15zm0 0" fill="#5b5555"/><path d="m90 392h90v120h-90zm0 0" fill="#73e6d3"/><path d="m105 392h75v120h-75zm0 0" fill="#73e6d3"/></svg>