<?xml version="1.0" encoding="UTF-8" standalone="no"?>
<svg
   xmlns:dc="http://purl.org/dc/elements/1.1/"
   xmlns:cc="http://creativecommons.org/ns#"
   xmlns:rdf="http://www.w3.org/1999/02/22-rdf-syntax-ns#"
   xmlns:svg="http://www.w3.org/2000/svg"
   xmlns="http://www.w3.org/2000/svg"
   xmlns:sodipodi="http://sodipodi.sourceforge.net/DTD/sodipodi-0.dtd"
   xmlns:inkscape="http://www.inkscape.org/namespaces/inkscape"
   width="64"
   height="64"
   viewBox="0 0 16.933333 16.933334"
   version="1.1"
   id="svg8"
   inkscape:version="0.92.4 (5da689c313, 2019-01-14)"
   sodipodi:docname="17-Influencer.svg"
   inkscape:export-filename="/home/wanzabuyumna/@WANZ_DESIGN/NICON STUDIO MAGANG/Style Line/Style Line/Icon 8/Icon 8.png"
   inkscape:export-xdpi="96"
   inkscape:export-ydpi="96">
  <defs
     id="defs2" />
  <sodipodi:namedview
     id="base"
     pagecolor="#ffffff"
     bordercolor="#959595"
     borderopacity="1"
     inkscape:pageopacity="0"
     inkscape:pageshadow="2"
     inkscape:zoom="3.959798"
     inkscape:cx="65.834844"
     inkscape:cy="46.147722"
     inkscape:document-units="px"
     inkscape:current-layer="layer1"
     inkscape:document-rotation="0"
     showgrid="false"
     units="px"
     inkscape:window-width="1920"
     inkscape:window-height="1040"
     inkscape:window-x="0"
     inkscape:window-y="0"
     inkscape:window-maximized="1"
     inkscape:pagecheckerboard="0">
    <inkscape:grid
       type="xygrid"
       id="grid1038" />
  </sodipodi:namedview>
  <metadata
     id="metadata5">
    <rdf:RDF>
      <cc:Work
         rdf:about="">
        <dc:format>image/svg+xml</dc:format>
        <dc:type
           rdf:resource="http://purl.org/dc/dcmitype/StillImage" />
      </cc:Work>
    </rdf:RDF>
  </metadata>
  <g
     inkscape:label="17-Influencer"
     inkscape:groupmode="layer"
     id="layer1">
    <path
       sodipodi:nodetypes="ccccccccc"
       d="m 12.168907,3.4404929 c 0.43974,0 0.79375,-0.354012 0.79375,-0.79375 v -1.587499 c 0,-0.439738 -0.35401,-0.79375 -0.79375,-0.79375 H 9.526926 c -0.43973,0 -0.79375,0.354012 -0.79375,0.79375 v 3.439583 l 1.05448,-1.058333 z"
       style="display:inline;opacity:1;fill:#38668c;fill-opacity:1;stroke:none;stroke-width:0.52916664;stroke-linecap:round;stroke-linejoin:round;stroke-miterlimit:4;stroke-dasharray:none;paint-order:stroke fill markers"
       id="path5858"
       inkscape:connector-curvature="0" />
    <path
       inkscape:connector-curvature="0"
       style="fill:#2c5170;fill-opacity:1;stroke:none;stroke-width:0.26458332px;stroke-linecap:butt;stroke-linejoin:miter;stroke-opacity:1"
       d="m 12.633854,0.4179394 c 0.03085,1.8615031 -2.34237,2.5836676 -3.900537,2.8587401 V 4.4988272 L 9.787516,3.4404939 h 2.38125 c 0.43974,0 0.79375,-0.354012 0.79375,-0.79375 v -1.5875 c 0,-0.2651446 -0.130064,-0.497305 -0.328662,-0.6413045 z"
       id="path5879"
       sodipodi:nodetypes="cccccccc" />
    <path
       style="opacity:1;fill:#e4eff8;fill-opacity:1;stroke:none;stroke-width:0.52916664;stroke-linecap:round;stroke-linejoin:round;stroke-miterlimit:4;stroke-dasharray:none;stroke-dashoffset:0;stroke-opacity:1"
       d="m 1.058333,5.8196769 c -0.439737,0 -0.79375,0.3540128 -0.79375,0.79375 v 9.2604171 c 0,0.439737 0.354013,0.79375 0.79375,0.79375 h 14.2875 c 0.439737,0 0.79375,-0.354013 0.79375,-0.79375 V 6.6134269 c 0,-0.4397372 -0.354013,-0.79375 -0.79375,-0.79375 z"
       id="path5764"
       inkscape:connector-curvature="0"
       sodipodi:nodetypes="ccccccccc" />
    <path
       id="path6031"
       d="M 5.55625,9.2613266 H 7.672916 V 11.377994 H 5.55625 Z"
       style="opacity:1;fill:#c4dcf0;fill-opacity:1;stroke:none;stroke-width:0.52916664;stroke-linecap:butt;stroke-miterlimit:4;stroke-dasharray:none;stroke-dashoffset:0;stroke-opacity:1"
       inkscape:connector-curvature="0"
       sodipodi:nodetypes="ccccc" />
    <path
       inkscape:connector-curvature="0"
       style="opacity:1;fill:#c4dcf0;fill-opacity:1;stroke:none;stroke-width:0.52916664;stroke-linecap:round;stroke-linejoin:round;stroke-miterlimit:4;stroke-dasharray:none;stroke-dashoffset:0;stroke-opacity:1"
       d="M 4.62194,5.8196769 C 4.385827,6.2206449 4.26079,6.6772729 4.259688,7.1425936 4.259631,8.5893153 5.432445,9.7621291 6.879167,9.7620717 8.325888,9.7621286 9.498702,8.589315 9.498645,7.1425936 9.497345,6.6772253 9.37217,6.220594 9.135876,5.8196769 Z"
       id="path6046"
       sodipodi:nodetypes="cccccc" />
    <path
       inkscape:connector-curvature="0"
       id="path5847"
       style="display:inline;opacity:1;fill:#e4eff8;fill-opacity:1;stroke:none;stroke-width:0.52916664;stroke-linecap:round;stroke-linejoin:round;stroke-miterlimit:4;stroke-dasharray:none;paint-order:stroke fill markers"
       d="m 1.326769,4.7615886 c -0.43974,0 -0.79375,-0.354012 -0.79375,-0.79375 v -1.587499 c 0,-0.439738 0.35401,-0.79375 0.79375,-0.79375 H 3.96875 c 0.43973,0 0.79375,0.354012 0.79375,0.79375 v 3.439583 L 3.70802,4.7615896 Z"
       sodipodi:nodetypes="ccccccccc" />
    <path
       inkscape:connector-curvature="0"
       style="fill:#c4dcf0;fill-opacity:1;stroke:none;stroke-width:0.26458332px;stroke-linecap:butt;stroke-linejoin:miter;stroke-opacity:1"
       d="m 4.235917,1.6359529 c 0.08313,2.1922738 -1.882995,2.8544476 -3.244763,3.0494262 0.102102,0.047642 0.214885,0.075964 0.33538,0.075964 h 2.38125 L 4.7625,5.8196769 V 2.3800935 c 0,-0.3453862 -0.219794,-0.6345212 -0.526583,-0.7441406 z"
       id="path5849"
       sodipodi:nodetypes="ccccccc" />
    <path
       sodipodi:nodetypes="cccccc"
       inkscape:connector-curvature="0"
       id="path5815"
       d="M 16.139583,7.9384105 V 6.6134269 c 0,-0.4397372 -0.354013,-0.79375 -0.79375,-0.79375 h -14.2875 c -0.439737,0 -0.79375,0.3540128 -0.79375,0.79375 v 1.3249836"
       style="opacity:1;fill:#38668c;fill-opacity:1;stroke:none;stroke-width:0.52916664;stroke-linecap:round;stroke-linejoin:round;stroke-miterlimit:4;stroke-dasharray:none;stroke-dashoffset:0;stroke-opacity:1" />
    <path
       inkscape:connector-curvature="0"
       style="opacity:1;fill:#2c5170;fill-opacity:1;stroke:none;stroke-width:0.52916664;stroke-linecap:round;stroke-linejoin:round;stroke-miterlimit:4;stroke-dasharray:none;stroke-dashoffset:0;stroke-opacity:1"
       d="m 4.62194,5.8196769 c -0.236113,0.400968 -0.36115,0.857596 -0.362252,1.3229167 0.0011,0.2702418 0.04395,0.5386907 0.127124,0.7958169 H 9.373588 C 9.45606,7.6811737 9.498245,7.4127274 9.498645,7.1425936 9.497387,6.6772253 9.37217,6.220594 9.135876,5.8196769 Z"
       id="path6040"
       sodipodi:nodetypes="ccccccc" />
    <path
       inkscape:connector-curvature="0"
       style="opacity:1;fill:#ffc6a0;fill-opacity:1;stroke:none;stroke-width:0.52916664;stroke-linecap:butt;stroke-miterlimit:4;stroke-dasharray:none;stroke-dashoffset:0;stroke-opacity:1"
       d="M 5.027083,9.2613266 H 7.14375 V 11.377994 H 5.027083 Z"
       id="rect5960"
       sodipodi:nodetypes="ccccc" />
    <path
       inkscape:connector-curvature="0"
       style="opacity:1;fill:#ffaf7a;fill-opacity:1;stroke:none;stroke-width:0.52916664;stroke-linecap:butt;stroke-linejoin:round;stroke-miterlimit:4;stroke-dasharray:none;stroke-dashoffset:0;stroke-opacity:1"
       d="m 7.14375,9.961026 c -0.493499,0.685252 -1.273098,1.107408 -2.116667,1.146183 v 0.270785 H 7.14375 Z"
       id="path5969"
       sodipodi:nodetypes="ccccc" />
    <path
       style="opacity:1;fill:#ffc6a0;fill-opacity:1;stroke:none;stroke-width:0.52916664;stroke-linecap:butt;stroke-linejoin:round;stroke-miterlimit:4;stroke-dasharray:none;stroke-dashoffset:0;stroke-opacity:1"
       d="m 8.704791,7.1428381 c 0,1.4466409 -1.172734,2.619375 -2.619375,2.619375 -1.446641,0 -2.619375,-1.1727341 -2.619375,-2.619375 0,-1.4466409 1.172734,-2.619375 2.619375,-2.619375 1.446641,0 2.619375,1.1727341 2.619375,2.619375 z"
       id="path5835"
       inkscape:connector-curvature="0"
       sodipodi:nodetypes="ccccc" />
    <path
       inkscape:connector-curvature="0"
       style="opacity:1;fill:#f8f8f8;fill-opacity:1;stroke:none;stroke-width:0.52916664;stroke-linecap:butt;stroke-linejoin:round;stroke-miterlimit:4;stroke-dasharray:none;stroke-dashoffset:0;stroke-opacity:1"
       d="M 6.085417,4.5236319 C 4.638897,4.5235744 3.466166,5.6960735 3.465938,7.1425936 3.467038,7.9481096 3.838641,8.7083379 4.473629,9.2039663 4.14656,8.755077 3.96984,8.2142456 3.96875,7.6588409 3.968579,6.2048537 5.14716,5.0260413 6.601147,5.0259269 7.158663,5.0268258 7.701501,5.2046954 8.15144,5.533906 7.65533,4.8966617 6.893009,4.5238907 6.085417,4.5236319 Z"
       id="circle5844"
       sodipodi:nodetypes="ccccccc" />
    <path
       inkscape:connector-curvature="0"
       style="opacity:1;fill:#ffaf7a;fill-opacity:1;stroke:none;stroke-width:0.52916664;stroke-linecap:butt;stroke-linejoin:round;stroke-miterlimit:4;stroke-dasharray:none;stroke-dashoffset:0;stroke-opacity:1"
       d="M 7.677567,5.0672681 C 7.847679,5.4313461 7.936382,5.8281301 7.9375,6.2299877 7.937386,7.756836 6.699659,8.9945627 5.172811,8.9946769 4.769617,8.9935969 4.371537,8.9043539 4.006474,8.733194 4.501555,9.3810223 5.270073,9.7613652 6.085417,9.7620717 7.532138,9.7621286 8.704952,8.589315 8.704895,7.1425936 8.703395,6.3287905 8.323804,5.5618942 7.677567,5.0672681 Z"
       id="circle5839"
       sodipodi:nodetypes="ccccccc" />
    <path
       inkscape:connector-curvature="0"
       style="fill:#c4dcf0;fill-opacity:1;stroke:none;stroke-width:0.26458332px;stroke-linecap:butt;stroke-linejoin:miter;stroke-opacity:1"
       d="M 14.380517,5.8196769 C 13.841834,14.528782 4.398769,16.081696 0.425814,16.349784 c 0.144598,0.192184 0.372425,0.31781 0.632519,0.31781 h 14.2875 c 0.439737,0 0.79375,-0.354013 0.79375,-0.79375 V 6.6134269 c 0,-0.4397375 -0.354013,-0.79375 -0.79375,-0.79375 z"
       id="path5805"
       sodipodi:nodetypes="cccccccc" />
    <path
       sodipodi:nodetypes="ccccccccc"
       inkscape:connector-curvature="0"
       id="path6086"
       d="m 13.345768,11.816867 c 0.666272,0 1.244671,-0.400811 1.416375,-1.041636 l 0.27392,-1.0222734 c 0.194193,-0.724684 -0.49638,-0.954274 -0.49638,-0.954274 L 14.552083,8.4675771 14.2875,7.9384104 12.435416,8.2029938 11.90625,10.319661 Z"
       style="opacity:1;fill:#ffc6a0;fill-opacity:1;stroke:none;stroke-width:0.52916664;stroke-linecap:butt;stroke-linejoin:round;stroke-miterlimit:4;stroke-dasharray:none;stroke-dashoffset:0;stroke-opacity:1" />
    <path
       inkscape:connector-curvature="0"
       style="fill:#ffaf7a;fill-opacity:1;stroke:none;stroke-width:0.26458332px;stroke-linecap:butt;stroke-linejoin:miter;stroke-opacity:1"
       d="m 14.2875,7.9384105 -0.252698,0.036174 c -0.3145,1.1724624 -0.816921,2.1810985 -1.450557,3.0504595 l 0.76171,0.791683 c 0.666272,0 1.244231,-0.400455 1.415935,-1.04128 l 0.274401,-1.0226766 c 0.194193,-0.7246839 -0.49661,-0.9539469 -0.49661,-0.9539469 l 0.0124,-0.3312459 z"
       id="path6088"
       sodipodi:nodetypes="ccccccccc" />
    <path
       sodipodi:nodetypes="ccccccccccccccccccc"
       inkscape:connector-curvature="0"
       id="path6005"
       d="m 10.05417,14.86405 v 1.274623 c 0,0.293159 -0.23601,0.529167 -0.529167,0.529167 h -6.95149 c -0.68726,0 -1.34147,-0.537276 -1.24052,-1.172535 l 0.7109,-3.326619 c 0.10095,-0.635261 0.62965,-0.86503 1.24052,-1.159302 l 1.477992,-0.691543 1.058081,1.058334 h 0.529181 l 1.058669,-1.058333 1.47825,0.691542 c 0.31307,0.150813 0.809713,0.451171 1.033103,0.631366 l 1.438594,-1.122522 c 0.219809,-0.193972 0.541058,-0.207296 0.74835,-2e-6 l 1.122537,1.12253 c 0.207291,0.207294 0.203105,0.536959 10e-7,0.748356 l -2.072577,1.980691 c -0.805548,0.805543 -1.370623,0.533693 -1.914647,-0.01033"
       style="display:inline;opacity:1;fill:#549ad4;fill-opacity:1;stroke:none;stroke-width:0.52916664;stroke-linecap:round;stroke-linejoin:round;stroke-miterlimit:4;stroke-dasharray:none;stroke-dashoffset:0;stroke-opacity:1" />
    <path
       inkscape:connector-curvature="0"
       style="display:inline;opacity:1;fill:#e4eff8;fill-opacity:1;stroke:none;stroke-width:0.52916664;stroke-linecap:butt;stroke-linejoin:round;stroke-miterlimit:4;stroke-dasharray:none;stroke-opacity:1"
       d="m 4.7625,10.319661 -0.794267,0.527616 1.058334,1.3224 0.79375,-0.793233 H 6.082316 L 5.027083,10.848827 v -0.529166 z m 2.38125,0 v 0.529166 l -1.055233,0.527617 h 0.260966 l 0.79375,0.793233 1.058333,-1.3224 -0.793233,-0.527616 z"
       id="path6106"
       sodipodi:nodetypes="cccccccccccccccc" />
    <path
       sodipodi:nodetypes="ccccc"
       inkscape:connector-curvature="0"
       id="path5896"
       d="m 11.982805,7.2776616 1.49671,-2.993418 2.619241,2.619241 -2.993419,1.496709 z"
       style="display:inline;opacity:1;fill:#ffca28;fill-opacity:1;stroke:none;stroke-width:0.52916664;stroke-linecap:butt;stroke-linejoin:round;stroke-miterlimit:4;stroke-dasharray:none;stroke-opacity:1" />
    <path
       inkscape:connector-curvature="0"
       style="display:inline;opacity:1;fill:#f8f8f8;fill-opacity:1;stroke:none;stroke-width:0.52916664;stroke-linecap:butt;stroke-linejoin:round;stroke-miterlimit:4;stroke-dasharray:none;stroke-opacity:1"
       d="m 13.47928,4.28437 -1.496549,2.9930989 0.304891,0.304891 1.379761,-2.7600383 2.198315,2.1977987 0.233061,-0.1167886 z"
       id="path5955"
       sodipodi:nodetypes="ccccccc" />
    <path
       inkscape:connector-curvature="0"
       style="fill:#ecb200;fill-opacity:1;stroke:none;stroke-width:0.26458332px;stroke-linecap:butt;stroke-linejoin:miter;stroke-opacity:1"
       d="m 14.156758,4.961848 c 0.300648,2.0149638 -0.666696,2.7748479 -1.426786,3.0628622 l 0.375171,0.3756877 2.993616,-1.4970662 z"
       id="path5903"
       sodipodi:nodetypes="ccccc" />
    <path
       inkscape:connector-curvature="0"
       style="fill:#3588cb;fill-opacity:1;stroke:none;stroke-width:0.26458332px;stroke-linecap:butt;stroke-linejoin:miter;stroke-opacity:1"
       d="M 12.59613,11.007474 C 9.899239,14.725619 4.806933,15.883611 1.5875,16.24178 c 0.237573,0.256588 0.603948,0.425814 0.985986,0.425814 H 9.525 c 0.293158,0 0.529167,-0.236008 0.529167,-0.529167 v -1.274341 l -0.0047,-0.0026 c 0.32361,0.05697 0.681476,-0.06601 1.106909,-0.491443 l 2.072742,-1.980748 c 0.203104,-0.211397 0.207291,-0.541498 0,-0.748792 z"
       id="path6015"
       sodipodi:nodetypes="ccccccccccc" />
    <path
       style="display:inline;opacity:1;fill:#ffca28;fill-opacity:1;stroke:none;stroke-width:0.52916664;stroke-linecap:round;stroke-linejoin:round;stroke-miterlimit:4;stroke-dasharray:none;stroke-dashoffset:0;stroke-opacity:1"
       d="M 11.982802,7.2776601 11.234447,8.0260153 12.35698,9.148548 13.105335,8.4001928 Z"
       id="rect5958"
       inkscape:connector-curvature="0"
       sodipodi:nodetypes="ccccc" />
    <path
       inkscape:connector-curvature="0"
       style="opacity:1;fill:#f8f8f8;fill-opacity:1;stroke:none;stroke-width:0.52916664;stroke-linecap:round;stroke-linejoin:round;stroke-miterlimit:4;stroke-dasharray:none;stroke-dashoffset:0;stroke-opacity:1"
       d="m 1.058333,5.8196769 c -0.439737,0 -0.79375,0.3540125 -0.79375,0.79375 V 7.9384105 H 0.79375 V 6.6134269 c 0,-0.4397372 0.354013,-0.79375 0.79375,-0.79375 z"
       id="path5826"
       sodipodi:nodetypes="ccccccc" />
    <path
       style="color:#000000;font-style:normal;font-variant:normal;font-weight:normal;font-stretch:normal;font-size:medium;line-height:normal;font-family:sans-serif;font-variant-ligatures:normal;font-variant-position:normal;font-variant-caps:normal;font-variant-numeric:normal;font-variant-alternates:normal;font-feature-settings:normal;text-indent:0;text-align:start;text-decoration:none;text-decoration-line:none;text-decoration-style:solid;text-decoration-color:#000000;letter-spacing:normal;word-spacing:normal;text-transform:none;writing-mode:lr-tb;direction:ltr;text-orientation:mixed;dominant-baseline:auto;baseline-shift:baseline;text-anchor:start;white-space:normal;shape-padding:0;clip-rule:nonzero;display:inline;overflow:visible;visibility:visible;opacity:1;isolation:auto;mix-blend-mode:normal;color-interpolation:sRGB;color-interpolation-filters:linearRGB;solid-color:#000000;solid-opacity:1;vector-effect:none;fill:#333333;fill-opacity:1;fill-rule:nonzero;stroke:none;stroke-width:0.52912802;stroke-linecap:round;stroke-linejoin:round;stroke-miterlimit:4;stroke-dasharray:none;stroke-dashoffset:0;stroke-opacity:1;paint-order:stroke fill markers;color-rendering:auto;image-rendering:auto;shape-rendering:auto;text-rendering:auto;enable-background:accumulate"
       d="M 9.5255568,9.6333333e-7 C 8.9438198,9.6333333e-7 8.4667028,0.477036 8.4667028,1.058693 v 3.4385511 c 1.341e-4,0.235264 0.284271,0.3534291 0.451136,0.1875581 L 9.896595,3.7046471 h 2.273771 c 0.581743,0 1.058854,-0.4682709 1.058854,-1.0586921 V 1.058693 C 13.22922,0.47704 12.762444,9.6333333e-7 12.170366,9.6333333e-7 Z m 0,0.52908803666667 h 2.6448092 c 0.285337,0 0.529686,0.231912 0.529686,0.529604 v 1.587262 c 0,0.290385 -0.231947,0.529604 -0.529686,0.529604 H 9.7849729 c -0.0704,6.12e-5 -0.1379681,0.02808 -0.1875859,0.07802 L 8.9958708,3.857069 V 1.058693 c 0,-0.297688 0.2319591,-0.529604 0.529686,-0.529604 z M 1.3234417,1.322203 c -0.59207801,0 -1.05885403,0.477039 -1.05885403,1.0586921 V 3.968157 c 0,0.5904212 0.47711101,1.0586922 1.05885403,1.0586922 h 2.273772 l 0.2511481,0.2516259 c -0.07482,0.08934 -0.144602,0.1813319 -0.206706,0.2769441 H 1.0588577 c -0.58905102,0 -1.0588550286975,0.476522 -1.0588550286975,1.0581749 v 9.2569629 c 0,0.58992 0.4771120186975,1.060241 1.0588550286975,1.060242 4.7597032,0.0057 9.5215583,0 14.2870373,0 0.581743,1e-6 1.058337,-0.46619 1.058337,-1.058175 V 7.9342462 c 0,-0.3528132 -0.529168,-0.3528132 -0.529168,0 v 7.9383778 c 0,0.29769 -0.241768,0.529089 -0.529169,0.529088 h -5.077229 c 0.03021,-0.08355 0.04961,-0.172131 0.04961,-0.265577 v -1.00754 c 0.326071,-0.02823 0.675258,-0.223573 1.025781,-0.574039 l 2.068098,-1.976328 c 0.0026,-0.0025 0.0052,-0.0051 0.0078,-0.0078 0.137884,-0.143492 0.216417,-0.326671 0.22686,-0.51462 0.649378,-0.104771 1.194207,-0.554052 1.370981,-1.213698 l 0.27337,-1.0235568 c 0.119153,-0.4447141 -0.01839,-0.777891 -0.244478,-1.0033559 -0.04999,-0.04986 -0.09812,-0.09076 -0.147795,-0.1255551 0.03246,-0.1963082 -0.02686,-0.395256 -0.172083,-0.5404551 L 14.550076,7.9719641 16.216647,7.137514 c 0.161501,-0.08078 0.196415,-0.2960049 0.06873,-0.4236817 L 13.665889,4.0952621 c -0.05029,-0.04974 -0.118403,-0.07728 -0.189137,-0.07647 -0.09913,4.763e-4 -0.189687,0.05631 -0.234612,0.1446718 L 12.415831,5.8173792 H 8.6780599 C 8.6330699,5.729329 8.58405,5.64266 8.529231,5.5580021 8.1134229,4.915862 7.4832209,4.4909221 6.7892788,4.3179532 c -0.260228,-0.06486 -0.5295331,-0.09417 -0.7994369,-0.08577 -0.324461,0.010099 -0.6496122,0.0766 -0.962736,0.1989248 V 2.380894 c 0,-0.581657 -0.477117,-1.058692 -1.058854,-1.058692 z M 9.789624,1.587264 c -0.146126,0 -0.2645842,0.11844 -0.2645842,0.264543 0,0.146104 0.1184582,0.264544 0.2645842,0.264544 0.1461259,0 0.264584,-0.11844 0.264584,-0.264544 0,-0.146103 -0.1184581,-0.264543 -0.264584,-0.264543 z m 1.058337,0 c -0.146126,0 -0.264584,0.11844 -0.264584,0.264543 0,0.146104 0.118458,0.264544 0.264584,0.264544 0.146126,0 0.264585,-0.11844 0.264585,-0.264544 0,-0.146103 -0.118459,-0.264543 -0.264585,-0.264543 z m 1.058338,0 c -0.146126,0 -0.264585,0.11844 -0.264585,0.264543 0,0.146104 0.118459,0.264544 0.264585,0.264544 0.146126,0 0.264584,-0.11844 0.264584,-0.264544 0,-0.146103 -0.118458,-0.264543 -0.264584,-0.264543 z M 1.3234417,1.8512911 h 2.6448102 c 0.2977258,0 0.529685,0.231916 0.529685,0.529604 v 2.798376 l -0.6015162,-0.60349 c -0.04962,-0.04994 -0.1171858,-0.07796 -0.1875859,-0.07802 H 1.3234417 c -0.297739,0 -0.52968601,-0.2392191 -0.52968601,-0.5296041 V 2.3808951 c 0,-0.297692 0.24434901,-0.529604 0.52968601,-0.529604 z m 0.264068,1.0581738 c -0.146126,0 -0.264585,0.1184413 -0.264585,0.2645442 0,0.1461029 0.118459,0.2645439 0.264585,0.2645439 0.146125,0 0.2645841,-0.118441 0.2645841,-0.2645439 0,-0.1461029 -0.1184591,-0.2645442 -0.2645841,-0.2645442 z m 1.0583369,0 c -0.1461268,0 -0.2645838,0.1184413 -0.2645838,0.2645442 0,0.1461029 0.118457,0.2645439 0.2645838,0.2645439 0.1461252,0 0.2645842,-0.118441 0.2645842,-0.2645439 0,-0.1461029 -0.118459,-0.2645442 -0.2645842,-0.2645442 z m 1.0583371,0 c -0.1461259,0 -0.2645839,0.1184413 -0.2645839,0.2645442 0,0.1461029 0.118458,0.2645439 0.2645839,0.2645439 0.1461262,0 0.2645852,-0.118441 0.2645852,-0.2645439 0,-0.1461029 -0.118459,-0.2645442 -0.2645852,-0.2645442 z M 14.628623,3.51554 c -0.05012,0.05108 -0.07722,0.120158 -0.07545,0.191691 l -0.0016,0.3740812 c -0.008,0.3611189 0.537768,0.3616449 0.530203,5.292e-4 l -10e-4,-0.3745982 c 0.0029,-0.1489779 -0.108425,-0.2526099 -0.233565,-0.2681731 -0.07509,-0.0093 -0.155482,0.01315 -0.218588,0.07647 z m 1.096062,0.767276 -0.18707,0.1870411 c -0.249498,0.2494589 0.124641,0.6235411 0.374139,0.3740811 l 0.187069,-0.18704 c 0.187124,-0.1870951 0.02362,-0.4445601 -0.175183,-0.4562337 -0.06627,-0.0039 -0.136581,0.019792 -0.198955,0.082152 z m -2.171969,0.4469381 2.099621,2.0992992 -2.495981,1.2467648 -0.852664,-0.852533 z M 8.0822277,5.8488972 C 8.763777,6.901425 8.5128199,8.2952842 7.508101,9.0456391 6.5033817,9.7959932 5.0953708,9.6401882 4.2793447,8.6880912 3.5269097,7.8101881 3.5221048,6.5392821 4.2276647,5.6582392 l 0.3483002,0.348764 c 0.1668658,0.165871 0.4510029,0.04771 0.4511368,-0.1875581 V 5.0154811 C 5.3420768,4.8583741 5.6763739,4.7746822 6.0094767,4.7638547 6.8174898,4.7375942 7.6136639,5.1252832 8.0822277,5.8488972 Z M 16.28951,5.2893373 c -0.06843,-0.00101 -0.134508,0.024569 -0.184485,0.0713 -0.17508,0.1650129 -0.05715,0.4593248 0.183452,0.457268 h 0.375689 c 0.359936,0.0063 0.358367,-0.5373291 -0.0016,-0.5290922 z M 3.3713868,6.0845062 c -0.1962499,0.505763 -0.247999,1.05561 -0.1503791,1.586229 H 0.52917167 V 6.613593 c 0,-0.2976888 0.24072001,-0.5275368 0.52968603,-0.5275368 z m 8.7798592,0.26196 -0.385508,0.7714139 -0.552423,0.5528551 H 8.9493618 c 0.08067,-0.435588 0.05954,-0.8889341 -0.063561,-1.324269 z M 1.3229247,6.6115271 c -0.146126,0 -0.264584,0.1184389 -0.264584,0.2645432 0,0.1461039 0.118458,0.2645428 0.264584,0.2645439 0.146126,0 0.264585,-0.11844 0.264585,-0.2645439 0,-0.1461043 -0.118459,-0.2645442 -0.264585,-0.2645432 z m 1.0583381,0 c -0.1461261,0 -0.2645851,0.1184389 -0.2645851,0.2645432 0,0.1461039 0.118459,0.2645428 0.2645851,0.2645439 0.146125,0 0.2645838,-0.11844 0.2645838,-0.2645439 0,-0.1461043 -0.1184588,-0.2645442 -0.2645838,-0.2645432 z m 9.6010002,1.0385402 0.748278,0.7481628 -0.374139,0.3745981 -0.748278,-0.748679 z M 0.52917167,8.1998222 H 3.3713868 c 0.1159431,0.297424 0.2854251,0.5811549 0.5038471,0.836 0.2542929,0.296695 0.556695,0.529212 0.8862539,0.69701 l -5.292e-4,0.3182788 c -0.03902,7.94e-4 -0.07694,0.0094 -0.1105881,0.02532 L 3.1708686,10.767756 C 2.8670238,10.913603 2.5655037,11.0485 2.3083858,11.250341 2.0351257,11.464853 1.8442867,11.741696 1.7833517,12.125092 l -0.710025,3.319198 c -0.06015,0.378852 0.07356,0.707202 0.297141,0.957421 h -0.31161 c -0.29773601,0 -0.52968603,-0.239665 -0.52968603,-0.531155 z m 10.50999333,0 c 0.0034,0.0038 0.0046,0.0087 0.0083,0.012401 l 0.861449,0.861317 c -6.61e-4,0.1031459 -0.0044,0.241758 -0.02015,0.409216 -0.02506,0.266731 -0.07329,0.491721 -0.147278,0.6179578 -0.205722,9.79e-4 -0.401412,0.07817 -0.557591,0.215975 L 9.9126142,11.306144 C 9.641783,11.114122 9.2824762,10.902815 9.0000041,10.767758 L 7.519469,10.076431 c -0.0348,-0.01623 -0.07271,-0.02469 -0.1111048,-0.0248 V 9.7312852 C 7.5528401,9.6574652 7.6939551,9.5730342 7.827978,9.4729422 8.2785682,9.1364279 8.6070881,8.691348 8.7984656,8.1998232 Z m 3.01223,0.021701 0.302309,0.3007119 c 0.0342,0.03419 0.03158,0.09346 0,0.1250378 L 13.54083,9.457439 c -0.03317,0.03317 -0.0852,0.03778 -0.12299,0 L 12.918127,8.9593523 13.259709,8.6178224 Z m -1.008211,1.61103 c 0.24446,0.2444228 0.63421,0.2385698 0.872819,0 L 14.61157,9.1370921 c 0.02075,0.015769 0.04208,0.03226 0.06253,0.0527 0.075,0.07499 0.181963,0.2125908 0.10697,0.4924031 l -0.274919,1.0214898 c -0.124088,0.463045 -0.520199,0.787331 -1.014929,0.837033 -0.02221,-0.02981 -0.04787,-0.06233 -0.07493,-0.08939 l -1.12345,-1.122761 c -0.01408,-0.01408 -0.03432,-0.03325 -0.04909,-0.04598 0.104909,-0.216374 0.148612,-0.5008758 0.172083,-0.7507458 0.0046,-0.04937 0.0068,-0.08361 0.0098,-0.1302052 0.04595,-0.011779 0.0848,-0.03466 0.118598,-0.0682 z m -7.7520101,0.106437 c 0.515372,0.1455228 1.0656588,0.1483608 1.5875061,0.001 V 10.470113 L 6.2404729,11.109777 H 5.9298968 L 5.2911739,10.47015 Z m 4.138781,4.2306328 c -0.248657,-0.26028 -0.6341149,0.122995 -0.3751731,0.373048 0.2089251,0.208892 0.454999,0.416463 0.7343252,0.518754 v 1.074709 c 0,0.142364 -0.112395,0.263511 -0.2635502,0.263511 H 3.7661957 l 0.193271,-0.721813 C 4.0628388,15.330573 3.5338127,15.187383 3.4478678,15.539359 l -0.230478,0.860284 h -0.643374 c -0.2746831,0 -0.5544611,-0.111598 -0.7400091,-0.279011 -0.172932,-0.156027 -0.274248,-0.367962 -0.240296,-0.586957 l 0.710037,-3.319713 c 0.04105,-0.258487 0.1734351,-0.422588 0.3327971,-0.547688 0.184624,-0.144932 0.453528,-0.272263 0.7611969,-0.4211 l 0.4015272,-0.188074 1.02113,1.275183 c 0.09867,0.122228 0.2814949,0.132089 0.392743,0.02119 l 0.7167549,-0.714582 h 0.3105761 l 0.714688,0.714578 c 0.111391,0.112073 0.295555,0.102179 0.394293,-0.02119 l 1.02113,-1.275183 0.4046281,0.189107 c 0.2884538,0.139426 0.7933949,0.448311 0.9787549,0.597807 0.0957,0.07661 0.2314924,0.07747 0.3281471,0.0021 l 1.439194,-1.12121 c 0.07209,-0.06491 0.147139,-0.09446 0.216525,-0.09559 0.06939,-0.0011 0.133111,0.02615 0.181901,0.0744 l 1.12345,1.120694 c 0.09654,0.09653 0.105013,0.26514 -0.0041,0.378731 l -2.067323,1.974519 c -0.372535,0.371443 -0.641785,0.449542 -0.84157,0.426512 -0.21559,-0.02657 -0.4463742,-0.180724 -0.7002361,-0.434546 z m -4.7227271,-3.536207 0.738459,0.739896 -0.3968771,0.398365 -0.7570618,-0.944503 z m 2.7574651,0 0.412379,0.192724 -0.7560291,0.945537 -0.3968769,-0.397848 z m -1.3792502,1.533528 c -0.1461259,0 -0.2645839,0.118441 -0.2645839,0.264544 0,0.146104 0.118458,0.264544 0.2645839,0.264544 0.1461262,0 0.2645852,-0.11844 0.2645852,-0.264544 0,-0.146103 -0.118459,-0.264544 -0.2645852,-0.264544 z m -2.9093938,1.057658 c -0.3450363,0.0077 -0.3450363,0.521431 0,0.529088 h 1.0562709 c 0.3450349,-0.0077 0.3450349,-0.52143 0,-0.529088 z m 2.9093938,5.3e-4 c -0.1461259,0 -0.2645839,0.11844 -0.2645839,0.264543 0,0.146104 0.118458,0.264544 0.2645839,0.264544 0.1461262,0 0.2645852,-0.11844 0.2645852,-0.264544 0,-0.146103 -0.118459,-0.264543 -0.2645852,-0.264543 z m 0,1.058174 c -0.1461259,0 -0.2645839,0.118441 -0.2645839,0.264545 0,0.146103 0.118458,0.264544 0.2645839,0.264544 0.1461262,0 0.2645852,-0.118441 0.2645852,-0.264544 0,-0.146104 -0.118459,-0.264545 -0.2645852,-0.264545 z m 0,1.058176 c -0.1461259,0 -0.2645839,0.118439 -0.2645839,0.264543 0,0.146104 0.118458,0.264544 0.2645839,0.264544 0.1461262,0 0.2645852,-0.11844 0.2645852,-0.264544 0,-0.146104 -0.118459,-0.264543 -0.2645852,-0.264543 z"
       id="path4943"
       inkscape:connector-curvature="0"
       sodipodi:nodetypes="cccccccccccccccccccccccccccccccccccccccccccccccccccccccccccccccccccccccccccccccccccccccccccccccccccccccccccccccccccccccccccccccccccccccccccccccccccccccccccccccccccccccccccccccccccccccccccccccccccccccccccccccccccccccccccccccccccccccccccccccccccccccccccccccccccccccccccccccccccccccccccccccccc" />
  </g>
</svg>
