<?xml version="1.0" encoding="UTF-8"?>
<!DOCTYPE svg PUBLIC "-//W3C//DTD SVG 1.1//EN" "http://www.w3.org/Graphics/SVG/1.1/DTD/svg11.dtd">
<!-- Creator: CorelDRAW -->
<svg xmlns="http://www.w3.org/2000/svg" xml:space="preserve" width="7.11111in" height="7.11111in" version="1.1" style="shape-rendering:geometricPrecision; text-rendering:geometricPrecision; image-rendering:optimizeQuality; fill-rule:evenodd; clip-rule:evenodd"
viewBox="0 0 7111 7111"
 xmlns:xlink="http://www.w3.org/1999/xlink">
 <defs>
  <style type="text/css">
   <![CDATA[
    .fil0 {fill:#333333}
    .fil17 {fill:url(#id0)}
    .fil12 {fill:url(#id1)}
    .fil10 {fill:url(#id2)}
    .fil3 {fill:url(#id3)}
    .fil13 {fill:url(#id4)}
    .fil11 {fill:url(#id5)}
    .fil14 {fill:url(#id6)}
    .fil1 {fill:url(#id7)}
    .fil7 {fill:url(#id8)}
    .fil15 {fill:url(#id9)}
    .fil5 {fill:url(#id10)}
    .fil4 {fill:url(#id11)}
    .fil8 {fill:url(#id12)}
    .fil9 {fill:url(#id13)}
    .fil2 {fill:url(#id14)}
    .fil16 {fill:url(#id15)}
    .fil18 {fill:url(#id16)}
    .fil6 {fill:url(#id17)}
    .fil19 {fill:url(#id18)}
   ]]>
  </style>
  <linearGradient id="id0" gradientUnits="userSpaceOnUse" x1="4122.38" y1="680.665" x2="4122.38" y2="946.311">
   <stop offset="0" style="stop-opacity:1; stop-color:red"/>
   <stop offset="1" style="stop-opacity:1; stop-color:#990000"/>
  </linearGradient>
  <linearGradient id="id1" gradientUnits="userSpaceOnUse" x1="457.472" y1="6551.35" x2="457.472" y2="6863.98">
   <stop offset="0" style="stop-opacity:1; stop-color:#E0AC69"/>
   <stop offset="1" style="stop-opacity:1; stop-color:#F1C27D"/>
  </linearGradient>
  <linearGradient id="id2" gradientUnits="userSpaceOnUse" xlink:href="#id1" x1="3428.2" y1="6551.35" x2="3428.2" y2="6863.98">
  </linearGradient>
  <linearGradient id="id3" gradientUnits="userSpaceOnUse" x1="5374.84" y1="6863.97" x2="5374.84" y2="5868.39">
   <stop offset="0" style="stop-opacity:1; stop-color:#E6E6E6"/>
   <stop offset="1" style="stop-opacity:1; stop-color:#CCCCCC"/>
  </linearGradient>
  <linearGradient id="id4" gradientUnits="userSpaceOnUse" xlink:href="#id1" x1="1942.84" y1="4907.03" x2="1942.84" y2="5582.3">
  </linearGradient>
  <linearGradient id="id5" gradientUnits="userSpaceOnUse" x1="1942.84" y1="5275.7" x2="1942.84" y2="6863.98">
   <stop offset="0" style="stop-opacity:1; stop-color:#336699"/>
   <stop offset="1" style="stop-opacity:1; stop-color:#00CCFF"/>
  </linearGradient>
  <linearGradient id="id6" gradientUnits="userSpaceOnUse" xlink:href="#id1" x1="1942.83" y1="3709.8" x2="1942.83" y2="4725.76">
  </linearGradient>
  <linearGradient id="id7" gradientUnits="userSpaceOnUse" xlink:href="#id1" x1="6691.56" y1="6614.28" x2="6691.56" y2="6863.98">
  </linearGradient>
  <linearGradient id="id8" gradientUnits="userSpaceOnUse" xlink:href="#id1" x1="5374.84" y1="4095.35" x2="5374.84" y2="4967.97">
  </linearGradient>
  <linearGradient id="id9" gradientUnits="userSpaceOnUse" xlink:href="#id3" x1="1942.84" y1="3127.31" x2="1942.84" y2="2867.24">
  </linearGradient>
  <linearGradient id="id10" gradientUnits="userSpaceOnUse" xlink:href="#id1" x1="4058.15" y1="6614.28" x2="4058.15" y2="6863.98">
  </linearGradient>
  <linearGradient id="id11" gradientUnits="userSpaceOnUse" x1="4303.39" y1="5483.46" x2="4303.39" y2="6863.98">
   <stop offset="0" style="stop-opacity:1; stop-color:#FF9911"/>
   <stop offset="1" style="stop-opacity:1; stop-color:#FF6600"/>
  </linearGradient>
  <linearGradient id="id12" gradientUnits="userSpaceOnUse" xlink:href="#id11" x1="5374.85" y1="2840.66" x2="5374.85" y2="3853.85">
  </linearGradient>
  <linearGradient id="id13" gradientUnits="userSpaceOnUse" xlink:href="#id3" x1="5374.86" y1="3547.58" x2="5374.86" y2="3355.22">
  </linearGradient>
  <linearGradient id="id14" gradientUnits="userSpaceOnUse" xlink:href="#id11" x1="6446.31" y1="5483.46" x2="6446.31" y2="6863.98">
  </linearGradient>
  <linearGradient id="id15" gradientUnits="userSpaceOnUse" xlink:href="#id11" x1="1942.82" y1="2294.4" x2="1942.82" y2="3468.29">
  </linearGradient>
  <linearGradient id="id16" gradientUnits="userSpaceOnUse" xlink:href="#id0" x1="5101.94" y1="680.665" x2="5101.94" y2="946.311">
  </linearGradient>
  <linearGradient id="id17" gradientUnits="userSpaceOnUse" xlink:href="#id1" x1="5374.84" y1="5159.96" x2="5374.84" y2="5772.18">
  </linearGradient>
  <linearGradient id="id18" gradientUnits="userSpaceOnUse" xlink:href="#id1" x1="5007.56" y1="247.146" x2="5007.56" y2="2226.43">
  </linearGradient>
 </defs>
 <g id="Layer_x0020_1">
  <metadata id="CorelCorpID_0Corel-Layer"/>
  <path class="fil0" d="M4774 5242l112 -200c-187,-146 -308,-373 -308,-628l0 -319 -173 0c-66,0 -120,-54 -120,-120 0,-67 54,-121 120,-121l68 0 0 -277c0,-362 256,-675 600,-755l0 -102c0,-67 54,-121 121,-121l362 0c66,0 121,54 121,121l0 102c344,80 600,393 600,755l0 277 67 0c67,0 121,54 121,121 0,66 -54,120 -121,120l-173 0 0 319c0,255 -120,482 -307,628l112 200 201 0c513,0 931,418 931,932l0 811c0,66 -54,120 -120,120l-6864 0c-67,0 -121,-54 -121,-120l0 -915c0,-571 464,-1036 1035,-1036l236 0 138 -245c-214,-161 -352,-417 -352,-705l0 -374 -211 0c-66,0 -121,-54 -121,-121 0,-67 55,-121 121,-121l91 0 0 -328c0,-405 290,-754 678,-838l0 -128c0,-67 54,-121 121,-121l408 0c67,0 121,54 121,121l0 128c388,84 677,433 677,838l0 328 91 0c67,0 121,54 121,121 0,67 -54,121 -121,121l-210 0 0 374c0,288 -138,544 -352,705l138 245 235 0c425,0 791,257 950,624 168,-251 453,-416 776,-416l201 0zm-1133 1622l0 -313 -426 0 0 313 426 0zm-667 0l0 -639c0,-67 54,-121 120,-121 67,0 121,54 121,121l0 85 426 0 0 -240c0,-438 -356,-794 -794,-794l-256 0 -563 562c-47,48 -123,48 -171,0l-562 -562 -257 0c-437,0 -794,356 -794,794l0 240 427 0 0 -85c0,-67 54,-121 120,-121 67,0 121,54 121,121l0 639 2062 0zm-1479 -1730l448 448 448 -448 -128 -227c-203,80 -437,80 -641,0l-127 227zm2388 1039l0 200 350 0 0 -62c0,-66 54,-120 121,-120 67,0 121,54 121,120l0 553 249 0 0 -1381 -151 0c-380,0 -690,310 -690,690zm0 441l0 250 350 0 0 -250 -350 0zm-3639 250l427 0 0 -313 -427 0 0 313zm1057 -3154l0 374c0,359 295,642 642,642l0 0c347,0 641,-283 641,-642l0 -374 -1283 0zm1403 -242l0 -328c0,-318 -249,-588 -567,-614 -63,-5 -111,-58 -111,-120l0 -112 -167 0 0 112c0,62 -48,115 -111,120 -317,26 -566,296 -566,614l0 328 1522 0zm-761 -99c-205,0 -372,-167 -372,-372 0,-205 167,-371 372,-371 205,0 371,166 371,371 0,205 -166,372 -371,372zm0 -502c-72,0 -130,59 -130,130 0,72 58,130 130,130 72,0 130,-58 130,-130 0,-71 -58,-130 -130,-130zm3022 3001l0 996 819 0 0 -996c-238,193 -581,193 -819,0zm1061 -385l0 1381 249 0 0 -553c0,-66 54,-120 121,-120 66,0 120,54 120,120l0 62 351 0 0 -199c0,-381 -310,-691 -690,-691l-151 0zm962 -3015l-3960 0c-67,0 -121,-54 -121,-121l0 -2221c0,-66 54,-120 121,-120l3960 0c66,0 120,54 120,120l0 2221c0,67 -54,121 -120,121zm-3840 -242l3719 0 0 -1979 -3719 0 0 1979zm3406 -192l-3093 0c-67,0 -121,-54 -121,-120l0 -1354c0,-67 54,-121 121,-121 67,0 121,54 121,121l0 1233 2972 0c67,0 121,54 121,121 0,66 -54,120 -121,120zm-2178 -846l-507 0c-67,0 -121,-54 -121,-121l0 -507c0,-67 54,-121 121,-121l507 0c67,0 121,54 121,121l0 507c0,67 -54,121 -121,121zm-386 -242l265 0 0 -265 -265 0 0 265zm1366 242l-508 0c-66,0 -120,-54 -120,-121l0 -507c0,-67 54,-121 120,-121l508 0c66,0 120,54 120,121l0 507c0,67 -54,121 -120,121zm-387 -242l266 0 0 -265 -266 0 0 265zm1585 665l-1417 0c-67,0 -121,-54 -121,-121 0,-66 54,-120 121,-120l1417 0c67,0 121,54 121,120 0,67 -54,121 -121,121zm-4611 4720c-67,0 -121,-54 -121,-121l0 -60c0,-67 54,-121 121,-121 67,0 121,54 121,121l0 60c0,67 -54,121 -121,121zm0 378c-67,0 -121,-54 -121,-121l0 -61c0,-66 54,-120 121,-120 67,0 121,54 121,120l0 61c0,67 -54,121 -121,121zm3840 -1317l-130 -232c-176,66 -380,66 -556,0l-131 232c16,212 193,380 409,380 216,0 393,-168 408,-380zm733 1472l351 0 0 -250 -351 0 0 250zm-1419 -1970c381,212 833,-59 833,-480l0 -319 -1110 0 0 319c0,205 112,384 277,480zm939 -1040l0 -277c0,-276 -215,-509 -490,-531 -63,-5 -111,-58 -111,-121l0 -84 -120 0 0 84c0,63 -49,116 -111,121 -275,22 -490,255 -490,531l0 277 1322 0zm-661 -65c-186,0 -338,-151 -338,-338 0,-186 152,-337 338,-337 186,0 338,151 338,337 0,187 -152,338 -338,338zm0 -434c-53,0 -96,43 -96,96 0,53 43,97 96,97 53,0 96,-44 96,-97 0,-53 -43,-96 -96,-96z"/>
  <polygon class="fil1" points="6516,6614 6516,6864 6867,6864 6867,6614 "/>
  <path class="fil2" d="M6516 6373l351 0 0 -199c0,-381 -310,-691 -690,-691l-151 0 0 1381 249 0 0 -553c0,-66 54,-120 121,-120 66,0 120,54 120,120l0 62z"/>
  <path class="fil3" d="M5784 6864l0 -996c-238,193 -581,193 -819,0l0 996 819 0z"/>
  <path class="fil4" d="M4724 6864l0 -1381 -151 0c-380,0 -690,310 -690,690l0 200 350 0 0 -62c0,-66 54,-120 121,-120 67,0 121,54 121,120l0 553 249 0z"/>
  <polygon class="fil5" points="4233,6864 4233,6614 3883,6614 3883,6864 "/>
  <path class="fil6" d="M4966 5392c16,212 193,380 409,380 216,0 393,-168 408,-380l-130 -232c-176,66 -380,66 -556,0l-131 232z"/>
  <path class="fil7" d="M5097 4894c381,212 833,-59 833,-480l0 -319 -1110 0 0 319c0,205 112,384 277,480z"/>
  <path class="fil8" d="M4714 3854l1322 0 0 -277c0,-276 -215,-509 -490,-531 -63,-5 -111,-58 -111,-121l0 -84 -120 0 0 84c0,63 -49,116 -111,121 -275,22 -490,255 -490,531l0 277zm999 -403c0,187 -152,338 -338,338 -186,0 -338,-151 -338,-338 0,-186 152,-337 338,-337 186,0 338,151 338,337z"/>
  <path class="fil9" d="M5375 3548c53,0 96,-44 96,-97 0,-53 -43,-96 -96,-96 -53,0 -96,43 -96,96 0,53 43,97 96,97z"/>
  <polygon class="fil10" points="3641,6551 3215,6551 3215,6864 3641,6864 "/>
  <path class="fil11" d="M3215 6310l426 0 0 -240c0,-438 -356,-794 -794,-794l-256 0 -563 562c-47,48 -123,48 -171,0l-562 -562 -257 0c-437,0 -794,356 -794,794l0 240 427 0 0 -85c0,-67 54,-121 120,-121 67,0 121,54 121,121l0 639 2062 0 0 -639c0,-67 54,-121 120,-121 67,0 121,54 121,121l0 85zm-1151 -100c0,67 -54,121 -121,121 -67,0 -121,-54 -121,-121l0 -60c0,-67 54,-121 121,-121 67,0 121,54 121,121l0 60zm0 317l0 61c0,67 -54,121 -121,121 -67,0 -121,-54 -121,-121l0 -61c0,-66 54,-120 121,-120 67,0 121,54 121,120z"/>
  <polygon class="fil12" points="671,6864 671,6551 244,6551 244,6864 "/>
  <path class="fil13" d="M1495 5134l448 448 448 -448 -128 -227c-203,80 -437,80 -641,0l-127 227z"/>
  <path class="fil14" d="M1943 4726l0 0zm-642 -642c0,359 295,642 642,642 347,0 641,-283 641,-642l0 -374 -1283 0 0 374z"/>
  <path class="fil15" d="M1813 2997c0,72 58,130 130,130 72,0 130,-58 130,-130 0,-71 -58,-130 -130,-130 -72,0 -130,59 -130,130z"/>
  <path class="fil16" d="M2314 2997c0,205 -166,372 -371,372 -205,0 -372,-167 -372,-372 0,-205 167,-371 372,-371 205,0 371,166 371,371zm390 471l0 -328c0,-318 -249,-588 -567,-614 -63,-5 -111,-58 -111,-120l0 -112 -167 0 0 112c0,62 -48,115 -111,120 -317,26 -566,296 -566,614l0 328 1522 0z"/>
  <polygon class="fil17" points="3990,946 4255,946 4255,681 3990,681 "/>
  <polygon class="fil18" points="4969,681 4969,946 5235,946 5235,681 "/>
  <path class="fil19" d="M5476 560l0 507c0,67 -54,121 -120,121l-508 0c-66,0 -120,-54 -120,-121l0 -507c0,-67 54,-121 120,-121l508 0c66,0 120,54 120,121zm-339 810l1417 0c67,0 121,54 121,120 0,67 -54,121 -121,121l-1417 0c-67,0 -121,-54 -121,-121 0,-66 54,-120 121,-120zm-1555 423l2972 0c67,0 121,54 121,121 0,66 -54,120 -121,120l-3093 0c-67,0 -121,-54 -121,-120l0 -1354c0,-67 54,-121 121,-121 67,0 121,54 121,121l0 1233zm-434 433l3719 0 0 -1979 -3719 0 0 1979zm1349 -1159c0,67 -54,121 -121,121l-507 0c-67,0 -121,-54 -121,-121l0 -507c0,-67 54,-121 121,-121l507 0c67,0 121,54 121,121l0 507z"/>
 </g>
</svg>
