<?xml version="1.0" encoding="UTF-8" standalone="no"?> <svg width="64" height="64" viewBox="0 0 64 64" fill="none" xmlns="http://www.w3.org/2000/svg">
<path d="M16 37H38C40.1217 37 42.1566 37.8429 43.6569 39.3431C45.1571 40.8434 46 42.8783 46 45V61H8V45C8 42.8783 8.84285 40.8434 10.3431 39.3431C11.8434 37.8429 13.8783 37 16 37V37Z" fill="#48CAE4"/>
<path d="M46 45V61H8V45C8 42.8783 8.84285 40.8434 10.3431 39.3431C11.8434 37.8429 13.8783 37 16 37H22L23 44L26 47L31 43L32 37H38C38.15 37 38.31 37 38.46 37.01C38.7241 37.865 39.1115 38.6769 39.61 39.42C39.8671 39.7971 40.0031 40.2436 40 40.7C39.9984 41.0025 40.0568 41.3023 40.1718 41.5821C40.2869 41.8618 40.4562 42.116 40.6701 42.3299C40.884 42.5438 41.1382 42.7131 41.4179 42.8282C41.6977 42.9432 41.9975 43.0016 42.3 43H45.75C45.9149 43.6539 45.9988 44.3256 46 45V45Z" fill="#00B4D8"/>
<path d="M17 26C15.9391 26 14.9217 25.5786 14.1716 24.8284C13.4214 24.0783 13 23.0609 13 22V19H17V26Z" fill="#EDB88E"/>
<path d="M13 19V22C13.7956 22 14.5587 22.3161 15.1213 22.8787C15.6839 23.4413 16 24.2044 16 25V25.87C16.3257 25.9593 16.6623 26.0031 17 26V19H13Z" fill="#DA9367"/>
<path d="M37 19H41V22C41 23.0609 40.5786 24.0783 39.8284 24.8284C39.0783 25.5786 38.0609 26 37 26V19Z" fill="#EDB88E"/>
<path d="M41 19V22C40.2044 22 39.4413 22.3161 38.8787 22.8787C38.3161 23.4413 38 24.2044 38 25V25.87C37.6743 25.9593 37.3377 26.0031 37 26V19H41Z" fill="#DA9367"/>
<path d="M22 31H32V37C32 38.3261 31.4732 39.5979 30.5355 40.5355C29.5979 41.4732 28.3261 42 27 42C25.6739 42 24.4021 41.4732 23.4645 40.5355C22.5268 39.5979 22 38.3261 22 37V31Z" fill="#EDB88E"/>
<path d="M32 36.12C30.3791 37.7342 28.2474 38.7346 25.97 38.95C26.731 39.5461 27.6504 39.9056 28.6139 39.9839C29.5775 40.0621 30.5428 39.8556 31.39 39.39C30.8583 40.3653 30.0169 41.1358 28.9986 41.5799C27.9804 42.0239 26.8432 42.1162 25.7667 41.8422C24.6902 41.5682 23.7355 40.9435 23.0534 40.0667C22.3714 39.1899 22.0007 38.1109 22 37V31H32V36.12Z" fill="#DA9367"/>
<path d="M17 21H37V27C37 29.6522 35.9464 32.1957 34.0711 34.0711C32.1957 35.9464 29.6522 37 27 37C24.3478 37 21.8043 35.9464 19.9289 34.0711C18.0536 32.1957 17 29.6522 17 27V21Z" fill="#F9DBAF"/>
<path d="M22 44V37H17V45L15 48V61H27V50L22 44Z" fill="#FCEA42"/>
<path d="M32 44V37H37V45L39 48V61H27V50L32 44Z" fill="#FCEA42"/>
<path d="M46 50H39V61H46V50Z" fill="#EDB88E"/>
<path d="M39 50V61H46V50H39ZM42 53.42C41.9999 54.4669 41.8311 55.5069 41.5 56.5C41.49 56.52 41.49 56.54 41.48 56.55C41.0105 56.0858 40.6379 55.5329 40.3838 54.9235C40.1298 54.3141 39.9993 53.6603 40 53V52H41.865C41.9542 52.3667 41.9995 52.7426 42 53.12V53.42Z" fill="#DA9367"/>
<path d="M15 50H8V61H15V50Z" fill="#EDB88E"/>
<path d="M8 50V61H15V50H8ZM14 53C14.0007 53.6603 13.8702 54.3141 13.6162 54.9235C13.3621 55.5329 12.9895 56.0858 12.52 56.55C12.51 56.54 12.51 56.52 12.5 56.5C12.1689 55.5069 12.0001 54.4669 12 53.42V53.12C12.0005 52.7426 12.0458 52.3667 12.135 52H14V53Z" fill="#DA9367"/>
<path d="M27 5C29.9174 5 32.7153 6.15893 34.7782 8.22183C36.8411 10.2847 38 13.0826 38 16V17H16V16C16 13.0826 17.1589 10.2847 19.2218 8.22183C21.2847 6.15893 24.0826 5 27 5V5Z" fill="#FDC741"/>
<path d="M38 16V17H16V16C15.9984 13.2558 17.0237 10.6102 18.8743 8.58379C20.7249 6.55738 23.2668 5.2968 26 5.05005C26.0148 7.69305 27.0747 10.2228 28.9483 12.0871C30.8219 13.9513 33.357 14.9985 36 15H37.95C37.98 15.33 38 15.66 38 16Z" fill="#EFAD1B"/>
<path d="M32.59 6.53796L32.948 11.783L34.88 12.301L36.043 9.74496C35.136 8.44013 33.9582 7.34626 32.59 6.53796V6.53796Z" fill="#EFAD1B"/>
<path d="M15 17H39C39.5304 17 40.0391 17.2107 40.4142 17.5858C40.7893 17.9609 41 18.4696 41 19V21H13V19C13 18.4696 13.2107 17.9609 13.5858 17.5858C13.9609 17.2107 14.4696 17 15 17Z" fill="#FCEA42"/>
<path d="M29 12H25L23.541 5.434C23.476 5.14166 23.4775 4.83846 23.5454 4.54677C23.6132 4.25508 23.7457 3.98236 23.9331 3.74873C24.1205 3.51511 24.3579 3.32654 24.6279 3.19695C24.8979 3.06736 25.1935 3.00005 25.493 3H28.507C28.8065 3.00005 29.1021 3.06736 29.3721 3.19695C29.6421 3.32654 29.8795 3.51511 30.0669 3.74873C30.2543 3.98236 30.3868 4.25508 30.4546 4.54677C30.5225 4.83846 30.524 5.14166 30.459 5.434L29 12Z" fill="#FCEA42"/>
<path d="M34.88 12.3L32.948 11.782L33.421 6.89999C33.4349 6.7554 33.4802 6.61559 33.5537 6.49027C33.6271 6.36496 33.727 6.25715 33.8464 6.17435C33.9657 6.09154 34.1017 6.03574 34.2448 6.01081C34.3879 5.98588 34.5347 5.99243 34.675 6.02999L36.258 6.45499C36.3983 6.49251 36.5288 6.56016 36.6403 6.65322C36.7519 6.74628 36.8418 6.86253 36.9039 6.99387C36.9659 7.12521 36.9986 7.26849 36.9997 7.41375C37.0007 7.55901 36.9701 7.70276 36.91 7.83499L34.88 12.3Z" fill="#FCEA42"/>
<path d="M19.12 12.3L21.052 11.782L20.579 6.89999C20.5651 6.7554 20.5198 6.61559 20.4463 6.49027C20.3729 6.36496 20.273 6.25715 20.1536 6.17435C20.0343 6.09154 19.8983 6.03574 19.7552 6.01081C19.6121 5.98588 19.4653 5.99243 19.325 6.02999L17.742 6.45499C17.6017 6.49251 17.4712 6.56016 17.3597 6.65322C17.2481 6.74628 17.1582 6.86253 17.0961 6.99387C17.0341 7.12521 17.0014 7.26849 17.0003 7.41375C16.9993 7.55901 17.0299 7.70276 17.09 7.83499L19.12 12.3Z" fill="#FCEA42"/>
<path d="M41 19V21H13V19C13.0016 18.4701 13.2128 17.9623 13.5875 17.5875C13.9623 17.2128 14.4701 17.0016 15 17H16C16.0016 17.5299 16.2128 18.0377 16.5875 18.4125C16.9623 18.7872 17.4701 18.9984 18 19H41Z" fill="#FDC741"/>
<path d="M29 12H25L23.54 5.43001C23.4746 5.138 23.4757 4.83501 23.5433 4.54349C23.6109 4.25198 23.7433 3.97942 23.9306 3.74602C24.1179 3.51263 24.3553 3.32438 24.6252 3.19524C24.8952 3.0661 25.1908 2.99937 25.49 3.00001H27.31C27.0234 2.99906 26.74 3.05989 26.4791 3.17837C26.2181 3.29685 25.9858 3.47018 25.7979 3.68656C25.6099 3.90294 25.4709 4.15729 25.3902 4.43226C25.3094 4.70724 25.2889 4.99639 25.33 5.28001L25.49 6.43001C25.6491 7.55348 26.0441 8.63058 26.6491 9.59055C27.254 10.5505 28.0552 11.3717 29 12V12Z" fill="#FDC741"/>
<path d="M20.11 12.03L19.12 12.3L17.09 7.84001C17.0299 7.70791 16.9992 7.5643 17.0001 7.41915C17.0011 7.274 17.0336 7.1308 17.0955 6.99948C17.1573 6.86817 17.247 6.75189 17.3583 6.65873C17.4696 6.56557 17.5999 6.49776 17.74 6.46001L19.32 6.03001C19.4803 5.98495 19.6498 5.98495 19.81 6.03001C19.5438 6.21957 19.3269 6.47007 19.1773 6.7606C19.0277 7.05112 18.9498 7.37323 18.95 7.70001C18.9528 7.88932 18.9797 8.0775 19.03 8.26001L20.11 12.03Z" fill="#FDC741"/>
<path d="M36.69 6.71003C36.266 6.74305 35.8631 6.90855 35.5383 7.18312C35.2134 7.45768 34.9832 7.82742 34.88 8.24003L33.9 12.04L32.95 11.78L33.42 6.90003C33.4349 6.75527 33.4811 6.61547 33.5552 6.49025C33.6294 6.36503 33.7298 6.25737 33.8495 6.17468C33.9693 6.09199 34.1055 6.03624 34.2489 6.01127C34.3923 5.9863 34.5394 5.9927 34.68 6.03003L36.26 6.46003C36.4218 6.50661 36.5695 6.59249 36.69 6.71003V6.71003Z" fill="#FDC741"/>
<path d="M39 57V61H27V50L32 44V37H34V41.9C34.0016 45.2047 32.8764 48.4111 30.81 50.99C30.2866 51.6463 30.001 52.4606 30 53.3C29.9983 53.7864 30.0928 54.2683 30.2781 54.718C30.4635 55.1676 30.736 55.5762 31.0799 55.9201C31.4238 56.264 31.8324 56.5365 32.282 56.7219C32.7317 56.9072 33.2136 57.0017 33.7 57H39Z" fill="#FDC741"/>
<path d="M27 57V61H15V48L17 45V37H20V43.47C20.0019 44.4764 19.7691 45.4694 19.32 46.37L18.68 47.63C18.1881 48.6172 17.9563 49.7136 18.0066 50.8155C18.0569 51.9173 18.3876 52.988 18.9674 53.9263C19.5472 54.8646 20.3569 55.6394 21.3198 56.1773C22.2827 56.7151 23.367 56.9983 24.47 57H27Z" fill="#FDC741"/>
<path d="M20 23V24C20 25.7961 20.4838 27.559 21.4005 29.1035C22.3172 30.6481 23.6329 31.9172 25.2095 32.7776C26.7861 33.6381 28.5653 34.058 30.3602 33.9933C32.1551 33.9286 33.8995 33.3817 35.41 32.41C34.2413 34.2267 32.5157 35.6161 30.4914 36.3703C28.4672 37.1246 26.2531 37.203 24.1806 36.594C22.108 35.9849 20.2884 34.7211 18.994 32.9917C17.6997 31.2623 17.0001 29.1602 17 27V21H37V23H20Z" fill="#EDB88E"/>
<path d="M27 53H15V57H27V53Z" fill="#EF5350"/>
<path d="M39 53H27V57H39V53Z" fill="#EF5350"/>
<path d="M33.7 57H27V53H30.01C30 53.1 30 53.2 30 53.3C29.9983 53.7864 30.0928 54.2683 30.2781 54.718C30.4635 55.1676 30.736 55.5762 31.0799 55.9201C31.4238 56.264 31.8324 56.5365 32.282 56.7219C32.7317 56.9072 33.2136 57.0017 33.7 57V57Z" fill="#E53935"/>
<path d="M24.47 57H15V53H18.49C18.9783 54.1842 19.8074 55.1967 20.8721 55.9088C21.9368 56.621 23.1891 57.0008 24.47 57V57Z" fill="#E53935"/>
<path d="M27 33.4691C26.1509 33.4697 25.3132 33.2732 24.553 32.8951C24.3156 32.7765 24.1351 32.5685 24.0511 32.3168C23.967 32.0652 23.9864 31.7904 24.105 31.5531C24.2235 31.3157 24.4315 31.1351 24.6832 31.0511C24.9349 30.9671 25.2096 30.9865 25.447 31.1051C25.9294 31.3453 26.461 31.4703 27 31.4703C27.5389 31.4703 28.0705 31.3453 28.553 31.1051C28.7904 30.9865 29.0651 30.9671 29.3168 31.0511C29.5684 31.1351 29.7764 31.3157 29.895 31.5531C30.0135 31.7904 30.0329 32.0652 29.9489 32.3168C29.8649 32.5685 29.6844 32.7765 29.447 32.8951C28.6867 33.2732 27.8491 33.4697 27 33.4691V33.4691Z" fill="#EF5350"/>
<path d="M25 26C24.8452 26 24.6926 25.964 24.554 25.895C24.0716 25.6548 23.54 25.5297 23.001 25.5297C22.4621 25.5297 21.9305 25.6548 21.448 25.895C21.2107 26.0136 20.9359 26.033 20.6842 25.9489C20.4326 25.8649 20.2246 25.6844 20.106 25.447C19.9875 25.2096 19.9681 24.9349 20.0521 24.6832C20.1361 24.4315 20.3167 24.2236 20.554 24.105C21.3145 23.7276 22.152 23.5312 23.001 23.5312C23.85 23.5313 24.6875 23.7276 25.448 24.105C25.6499 24.2056 25.8118 24.3715 25.9075 24.5757C26.0032 24.78 26.027 25.0106 25.9751 25.2301C25.9232 25.4496 25.7987 25.6451 25.6217 25.7848C25.4446 25.9246 25.2256 26.0004 25 26Z" fill="#656B76"/>
<path d="M33 26C32.8452 26 32.6926 25.964 32.554 25.895C32.0716 25.6548 31.54 25.5297 31.001 25.5297C30.4621 25.5297 29.9305 25.6548 29.448 25.895C29.2107 26.0136 28.9359 26.033 28.6842 25.9489C28.4326 25.8649 28.2246 25.6844 28.106 25.447C27.9875 25.2096 27.9681 24.9349 28.0521 24.6832C28.1361 24.4315 28.3167 24.2236 28.554 24.105C29.3145 23.7276 30.152 23.5312 31.001 23.5312C31.85 23.5312 32.6875 23.7276 33.448 24.105C33.6499 24.2056 33.8118 24.3715 33.9075 24.5757C34.0032 24.78 34.027 25.0106 33.9751 25.2301C33.9232 25.4496 33.7987 25.6451 33.6217 25.7848C33.4446 25.9246 33.2256 26.0004 33 26Z" fill="#656B76"/>
<path d="M40.422 46H51.844C52.2321 45.1085 52.872 44.3497 53.6853 43.8168C54.4985 43.2839 55.4497 43 56.422 43C57.3943 43 58.3455 43.2839 59.1587 43.8168C59.9719 44.3497 60.6119 45.1085 61 46H58.422C57.8916 46 57.3829 46.2107 57.0078 46.5858C56.6327 46.9609 56.422 47.4696 56.422 48C56.422 48.5305 56.6327 49.0392 57.0078 49.4142C57.3829 49.7893 57.8916 50 58.422 50H61C60.6119 50.8915 59.9719 51.6503 59.1587 52.1832C58.3455 52.7162 57.3943 53 56.422 53C55.4497 53 54.4985 52.7162 53.6853 52.1832C52.872 51.6503 52.2321 50.8915 51.844 50H40.422C39.8916 50 39.3829 49.7893 39.0078 49.4142C38.6327 49.0392 38.422 48.5305 38.422 48C38.422 47.4696 38.6327 46.9609 39.0078 46.5858C39.3829 46.2107 39.8916 46 40.422 46Z" fill="#D0D8DA"/>
<path d="M11 48.882V47C11 46.4696 10.7893 45.9609 10.4142 45.5858C10.0391 45.2107 9.53043 45 9 45H6C5.46957 45 4.96086 45.2107 4.58579 45.5858C4.21071 45.9609 4 46.4696 4 47V48.882C3.99997 49.6172 4.17115 50.3424 4.5 51C4.82885 51.6576 5.00003 52.3828 5 53.118V53.418C4.99996 54.4655 4.83113 55.5062 4.5 56.5V56.5C4.16898 57.4935 4.00015 58.5338 4 59.581V61H11V59.581C10.9999 58.5338 10.831 57.4935 10.5 56.5V56.5C10.169 55.5065 10.0001 54.4662 10 53.419V53.119C9.99981 52.3834 10.171 51.6579 10.5 51V51C10.8288 50.3424 11 49.6172 11 48.882Z" fill="#F9DBAF"/>
<path d="M11 59.58V61H4V59.58C4.00008 58.5331 4.16892 57.4931 4.5 56.5C4.83109 55.5069 4.99992 54.4669 5 53.42V53.12C5.00086 52.384 4.82964 51.658 4.5 51C4.17037 50.342 3.99914 49.616 4 48.88V47C4.00159 46.4701 4.21281 45.9623 4.58754 45.5875C4.96227 45.2128 5.47006 45.0016 6 45H7.38C7.04411 45.1631 6.76093 45.4176 6.56286 45.7341C6.3648 46.0507 6.25984 46.4166 6.26 46.79V48.72C6.2776 49.4787 6.46557 50.2238 6.81 50.9C7.10368 51.5295 7.25722 52.2153 7.26 52.91V53.21C7.24221 54.3019 7.05672 55.3845 6.71 56.42C6.69 56.48 6.68 56.54 6.66 56.61C6.58516 56.8942 6.57707 57.1918 6.63637 57.4796C6.69567 57.7675 6.82076 58.0377 7.00185 58.2691C7.18293 58.5005 7.41511 58.687 7.68022 58.8138C7.94532 58.9405 8.23617 59.0043 8.53 59H10.98C10.99 59.19 11 59.38 11 59.58Z" fill="#EDB88E"/>
<path d="M59.42 52C58.5565 52.653 57.5025 53.0043 56.42 53C55.4479 52.9977 54.4975 52.7129 53.6844 52.1803C52.8712 51.6477 52.2304 50.8902 51.84 50H40.42C39.8895 50 39.3808 49.7893 39.0058 49.4142C38.6307 49.0391 38.42 48.5304 38.42 48C38.42 47.4696 38.6307 46.9609 39.0058 46.5858C39.3808 46.2107 39.8895 46 40.42 46H51.84C52.1384 45.3329 52.5746 44.7365 53.12 44.25C53.039 44.6617 52.9988 45.0804 53 45.5C52.9999 47.2101 53.6737 48.8514 54.8754 50.0681C56.0772 51.2849 57.71 51.979 59.42 52V52Z" fill="#B8BEBF"/>
<path d="M50 48.882V47C50 46.4696 49.7893 45.9609 49.4142 45.5858C49.0391 45.2107 48.5304 45 48 45H45C44.4696 45 43.9609 45.2107 43.5858 45.5858C43.2107 45.9609 43 46.4696 43 47V48.882C43 49.6172 43.1712 50.3424 43.5 51V51C43.8288 51.6576 44 52.3828 44 53.118V53.418C43.9999 54.4652 43.831 55.5055 43.5 56.499V56.499C43.169 57.4925 43.0001 58.5328 43 59.58V61H50V59.581C49.9999 58.5338 49.831 57.4935 49.5 56.5V56.5C49.169 55.5065 49.0001 54.4662 49 53.419V53.119C48.9998 52.3834 49.171 51.6579 49.5 51V51C49.8288 50.3424 50 49.6172 50 48.882V48.882Z" fill="#F9DBAF"/>
<path d="M50 59.58V61H43V59.58C43.0001 58.5331 43.1689 57.4931 43.5 56.5C43.8311 55.5069 43.9999 54.4669 44 53.42V53.12C44.0009 52.384 43.8296 51.658 43.5 51C43.1704 50.342 42.9991 49.616 43 48.88V47C43.0016 46.4701 43.2128 45.9623 43.5875 45.5875C43.9623 45.2128 44.4701 45.0016 45 45H46.38C46.0441 45.1631 45.7609 45.4176 45.5629 45.7341C45.3648 46.0507 45.2598 46.4166 45.26 46.79V48.72C45.2776 49.4787 45.4656 50.2238 45.81 50.9C46.1037 51.5295 46.2572 52.2153 46.26 52.91V53.21C46.2422 54.3019 46.0567 55.3845 45.71 56.42C45.69 56.48 45.68 56.54 45.66 56.61C45.5852 56.8942 45.5771 57.1918 45.6364 57.4796C45.6957 57.7675 45.8208 58.0377 46.0018 58.2691C46.1829 58.5005 46.4151 58.687 46.6802 58.8138C46.9453 58.9405 47.2362 59.0043 47.53 59H49.98C49.99 59.19 50 59.38 50 59.58Z" fill="#EDB88E"/>
</svg>
