<svg width="166" height="45" viewBox="0 0 166 45" fill="none" xmlns="http://www.w3.org/2000/svg">
<path d="M58.8608 41.2148L57.6262 36.562H58.2578L58.9656 39.6121C59.0417 39.9316 59.1073 40.2489 59.1624 40.5642C59.2808 40.067 59.3507 39.7803 59.3718 39.7041L60.2573 36.562H61L61.6665 38.917C61.8337 39.501 61.9543 40.05 62.0283 40.5642C62.0876 40.2701 62.1648 39.9326 62.26 39.5518L62.99 36.562H63.6089L62.333 41.2148H61.7395L60.7588 37.6697C60.6763 37.3735 60.6276 37.1915 60.6128 37.1238C60.5641 37.3375 60.5186 37.5194 60.4763 37.6697L59.4893 41.2148H58.8608ZM64.1135 41.2148V36.562H64.6848V38.2314C64.9514 37.9225 65.2878 37.7681 65.6941 37.7681C65.9438 37.7681 66.1606 37.8178 66.3447 37.9172C66.5288 38.0146 66.66 38.15 66.7383 38.3235C66.8187 38.497 66.8589 38.7488 66.8589 39.0789V41.2148H66.2876V39.0789C66.2876 38.7932 66.2252 38.5859 66.1003 38.4568C65.9776 38.3256 65.8031 38.26 65.5767 38.26C65.4074 38.26 65.2476 38.3044 65.0974 38.3933C64.9493 38.4801 64.8435 38.5986 64.78 38.7488C64.7166 38.899 64.6848 39.1064 64.6848 39.3708V41.2148H64.1135ZM70.0391 40.1294L70.6294 40.2024C70.5363 40.5473 70.3639 40.8149 70.1121 41.0054C69.8603 41.1958 69.5387 41.291 69.1472 41.291C68.6542 41.291 68.2628 41.1397 67.9729 40.8372C67.6851 40.5325 67.5413 40.1061 67.5413 39.5581C67.5413 38.991 67.6873 38.5509 67.9792 38.2378C68.2712 37.9246 68.65 37.7681 69.1155 37.7681C69.5662 37.7681 69.9343 37.9215 70.22 38.2283C70.5056 38.5351 70.6484 38.9667 70.6484 39.5232C70.6484 39.557 70.6474 39.6078 70.6453 39.6755H68.1316C68.1528 40.0458 68.2575 40.3293 68.4458 40.5261C68.6341 40.7229 68.869 40.8213 69.1504 40.8213C69.3599 40.8213 69.5387 40.7663 69.6868 40.6562C69.8349 40.5462 69.9523 40.3706 70.0391 40.1294ZM68.1633 39.2058H70.0454C70.02 38.9223 69.9481 38.7096 69.8296 38.5679C69.6476 38.3478 69.4117 38.2378 69.1218 38.2378C68.8595 38.2378 68.6383 38.3256 68.4585 38.5012C68.2808 38.6768 68.1824 38.9117 68.1633 39.2058ZM71.3435 41.2148V37.8442H71.8577V38.3552C71.9889 38.1161 72.1095 37.9585 72.2195 37.8823C72.3316 37.8062 72.4543 37.7681 72.5876 37.7681C72.7802 37.7681 72.9759 37.8294 73.1748 37.9521L72.978 38.4822C72.8384 38.3997 72.6987 38.3584 72.5591 38.3584C72.4342 38.3584 72.3221 38.3965 72.2227 38.4727C72.1232 38.5467 72.0523 38.6504 72.01 38.7837C71.9465 38.9868 71.9148 39.209 71.9148 39.4502V41.2148H71.3435ZM75.8218 40.1294L76.4121 40.2024C76.319 40.5473 76.1466 40.8149 75.8948 41.0054C75.643 41.1958 75.3214 41.291 74.9299 41.291C74.4369 41.291 74.0455 41.1397 73.7556 40.8372C73.4679 40.5325 73.324 40.1061 73.324 39.5581C73.324 38.991 73.47 38.5509 73.762 38.2378C74.054 37.9246 74.4327 37.7681 74.8982 37.7681C75.3489 37.7681 75.717 37.9215 76.0027 38.2283C76.2883 38.5351 76.4312 38.9667 76.4312 39.5232C76.4312 39.557 76.4301 39.6078 76.428 39.6755H73.9143C73.9355 40.0458 74.0402 40.3293 74.2285 40.5261C74.4168 40.7229 74.6517 40.8213 74.9331 40.8213C75.1426 40.8213 75.3214 40.7663 75.4695 40.6562C75.6176 40.5462 75.735 40.3706 75.8218 40.1294ZM73.946 39.2058H75.8281C75.8027 38.9223 75.7308 38.7096 75.6123 38.5679C75.4303 38.3478 75.1944 38.2378 74.9045 38.2378C74.6422 38.2378 74.4211 38.3256 74.2412 38.5012C74.0635 38.6768 73.9651 38.9117 73.946 39.2058ZM80.189 40.7039L80.2715 41.2085C80.1107 41.2424 79.9668 41.2593 79.8398 41.2593C79.6325 41.2593 79.4717 41.2265 79.3574 41.1609C79.2432 41.0953 79.1628 41.0096 79.1162 40.9038C79.0697 40.7959 79.0464 40.5706 79.0464 40.2278V38.2886H78.6274V37.8442H79.0464V37.0095L79.6145 36.6667V37.8442H80.189V38.2886H79.6145V40.2595C79.6145 40.4224 79.624 40.5272 79.6431 40.5737C79.6642 40.6203 79.697 40.6573 79.7415 40.6848C79.788 40.7123 79.8536 40.7261 79.9382 40.7261C80.0017 40.7261 80.0853 40.7187 80.189 40.7039ZM80.7507 41.2148V36.562H81.322V38.2314C81.5886 37.9225 81.925 37.7681 82.3313 37.7681C82.581 37.7681 82.7979 37.8178 82.9819 37.9172C83.166 38.0146 83.2972 38.15 83.3755 38.3235C83.4559 38.497 83.4961 38.7488 83.4961 39.0789V41.2148H82.9248V39.0789C82.9248 38.7932 82.8624 38.5859 82.7375 38.4568C82.6148 38.3256 82.4403 38.26 82.2139 38.26C82.0446 38.26 81.8848 38.3044 81.7346 38.3933C81.5865 38.4801 81.4807 38.5986 81.4172 38.7488C81.3538 38.899 81.322 39.1064 81.322 39.3708V41.2148H80.7507ZM86.6763 40.1294L87.2666 40.2024C87.1735 40.5473 87.0011 40.8149 86.7493 41.0054C86.4975 41.1958 86.1759 41.291 85.7844 41.291C85.2914 41.291 84.9 41.1397 84.6101 40.8372C84.3223 40.5325 84.1785 40.1061 84.1785 39.5581C84.1785 38.991 84.3245 38.5509 84.6165 38.2378C84.9084 37.9246 85.2872 37.7681 85.7527 37.7681C86.2034 37.7681 86.5715 37.9215 86.8572 38.2283C87.1428 38.5351 87.2856 38.9667 87.2856 39.5232C87.2856 39.557 87.2846 39.6078 87.2825 39.6755H84.7688C84.79 40.0458 84.8947 40.3293 85.083 40.5261C85.2713 40.7229 85.5062 40.8213 85.7876 40.8213C85.9971 40.8213 86.1759 40.7663 86.324 40.6562C86.4721 40.5462 86.5895 40.3706 86.6763 40.1294ZM84.8005 39.2058H86.6826C86.6572 38.9223 86.5853 38.7096 86.4668 38.5679C86.2848 38.3478 86.0489 38.2378 85.759 38.2378C85.4967 38.2378 85.2756 38.3256 85.0957 38.5012C84.918 38.6768 84.8196 38.9117 84.8005 39.2058ZM90.4182 41.2148L89.3867 37.8442H89.9771L90.5134 39.7898L90.7134 40.5134C90.7218 40.4775 90.78 40.2458 90.8879 39.8184L91.4243 37.8442H92.0115L92.5161 39.7993L92.6843 40.4436L92.8779 39.793L93.4556 37.8442H94.011L92.9573 41.2148H92.3638L91.8274 39.1963L91.6973 38.6218L91.0149 41.2148H90.4182ZM94.2808 39.5295C94.2808 38.9054 94.4543 38.443 94.8013 38.1426C95.0911 37.8929 95.4445 37.7681 95.8613 37.7681C96.3247 37.7681 96.7035 37.9204 96.9976 38.2251C97.2917 38.5277 97.4387 38.9466 97.4387 39.4819C97.4387 39.9157 97.3731 40.2574 97.2419 40.5071C97.1129 40.7546 96.9235 40.9472 96.6738 41.0847C96.4263 41.2222 96.1554 41.291 95.8613 41.291C95.3895 41.291 95.0076 41.1397 94.7156 40.8372C94.4257 40.5346 94.2808 40.0987 94.2808 39.5295ZM94.8679 39.5295C94.8679 39.9612 94.9621 40.2849 95.1504 40.5007C95.3387 40.7144 95.5757 40.8213 95.8613 40.8213C96.1449 40.8213 96.3808 40.7134 96.5691 40.4976C96.7574 40.2817 96.8516 39.9527 96.8516 39.5105C96.8516 39.0937 96.7563 38.7784 96.5659 38.5647C96.3776 38.3489 96.1427 38.241 95.8613 38.241C95.5757 38.241 95.3387 38.3478 95.1504 38.5615C94.9621 38.7752 94.8679 39.0979 94.8679 39.5295ZM98.1052 41.2148V37.8442H98.6194V38.3552C98.7506 38.1161 98.8712 37.9585 98.9812 37.8823C99.0933 37.8062 99.2161 37.7681 99.3494 37.7681C99.5419 37.7681 99.7376 37.8294 99.9365 37.9521L99.7397 38.4822C99.6001 38.3997 99.4604 38.3584 99.3208 38.3584C99.196 38.3584 99.0838 38.3965 98.9844 38.4727C98.8849 38.5467 98.814 38.6504 98.7717 38.7837C98.7083 38.9868 98.6765 39.209 98.6765 39.4502V41.2148H98.1052ZM100.263 41.2148V36.562H100.835V41.2148H100.263ZM103.91 41.2148V40.7896C103.696 41.1239 103.382 41.291 102.968 41.291C102.699 41.291 102.451 41.217 102.225 41.0688C102.001 40.9207 101.826 40.7144 101.701 40.45C101.578 40.1833 101.517 39.8776 101.517 39.5327C101.517 39.1963 101.573 38.8916 101.685 38.6187C101.797 38.3436 101.966 38.1331 102.19 37.9871C102.414 37.8411 102.665 37.7681 102.942 37.7681C103.145 37.7681 103.326 37.8114 103.485 37.8982C103.644 37.9828 103.773 38.0939 103.872 38.2314V36.562H104.44V41.2148H103.91ZM102.104 39.5327C102.104 39.9644 102.195 40.287 102.377 40.5007C102.559 40.7144 102.774 40.8213 103.021 40.8213C103.271 40.8213 103.483 40.7197 103.656 40.5166C103.832 40.3114 103.92 39.9993 103.92 39.5803C103.92 39.1191 103.831 38.7805 103.653 38.5647C103.475 38.3489 103.256 38.241 102.996 38.241C102.742 38.241 102.53 38.3446 102.358 38.552C102.189 38.7594 102.104 39.0863 102.104 39.5327ZM109.35 39.9802L109.912 40.0532C109.851 40.4404 109.693 40.7441 109.439 40.9641C109.187 41.182 108.877 41.291 108.509 41.291C108.048 41.291 107.676 41.1408 107.395 40.8403C107.116 40.5378 106.976 40.1051 106.976 39.5422C106.976 39.1783 107.036 38.8599 107.157 38.5869C107.278 38.314 107.461 38.1098 107.706 37.9744C107.954 37.8368 108.222 37.7681 108.512 37.7681C108.878 37.7681 109.178 37.8612 109.41 38.0474C109.643 38.2314 109.792 38.4938 109.858 38.8345L109.302 38.9202C109.25 38.6938 109.155 38.5234 109.02 38.4092C108.887 38.2949 108.725 38.2378 108.534 38.2378C108.247 38.2378 108.013 38.3415 107.833 38.5488C107.653 38.7541 107.563 39.0799 107.563 39.5264C107.563 39.9792 107.65 40.3082 107.823 40.5134C107.997 40.7187 108.223 40.8213 108.503 40.8213C108.727 40.8213 108.914 40.7525 109.064 40.615C109.215 40.4775 109.31 40.2659 109.35 39.9802ZM110.188 39.5295C110.188 38.9054 110.361 38.443 110.708 38.1426C110.998 37.8929 111.352 37.7681 111.769 37.7681C112.232 37.7681 112.611 37.9204 112.905 38.2251C113.199 38.5277 113.346 38.9466 113.346 39.4819C113.346 39.9157 113.28 40.2574 113.149 40.5071C113.02 40.7546 112.831 40.9472 112.581 41.0847C112.333 41.2222 112.063 41.291 111.769 41.291C111.297 41.291 110.915 41.1397 110.623 40.8372C110.333 40.5346 110.188 40.0987 110.188 39.5295ZM110.775 39.5295C110.775 39.9612 110.869 40.2849 111.058 40.5007C111.246 40.7144 111.483 40.8213 111.769 40.8213C112.052 40.8213 112.288 40.7134 112.476 40.4976C112.665 40.2817 112.759 39.9527 112.759 39.5105C112.759 39.0937 112.664 38.7784 112.473 38.5647C112.285 38.3489 112.05 38.241 111.769 38.241C111.483 38.241 111.246 38.3478 111.058 38.5615C110.869 38.7752 110.775 39.0979 110.775 39.5295ZM114.019 41.2148V37.8442H114.53V38.3171C114.636 38.1521 114.776 38.0199 114.952 37.9204C115.128 37.8188 115.327 37.7681 115.552 37.7681C115.801 37.7681 116.006 37.8199 116.164 37.9236C116.325 38.0273 116.438 38.1722 116.504 38.3584C116.771 37.9648 117.118 37.7681 117.545 37.7681C117.879 37.7681 118.136 37.8612 118.316 38.0474C118.496 38.2314 118.586 38.516 118.586 38.9011V41.2148H118.018V39.0916C118.018 38.863 117.999 38.6991 117.961 38.5996C117.925 38.498 117.858 38.4166 117.761 38.3552C117.663 38.2939 117.549 38.2632 117.418 38.2632C117.181 38.2632 116.984 38.3425 116.828 38.5012C116.671 38.6578 116.593 38.9096 116.593 39.2566V41.2148H116.021V39.0249C116.021 38.771 115.975 38.5806 115.882 38.4536C115.789 38.3267 115.636 38.2632 115.425 38.2632C115.264 38.2632 115.115 38.3055 114.977 38.3901C114.842 38.4748 114.743 38.5986 114.682 38.7615C114.621 38.9244 114.59 39.1593 114.59 39.4661V41.2148H114.019ZM121.741 40.1294L122.331 40.2024C122.238 40.5473 122.066 40.8149 121.814 41.0054C121.562 41.1958 121.24 41.291 120.849 41.291C120.356 41.291 119.964 41.1397 119.675 40.8372C119.387 40.5325 119.243 40.1061 119.243 39.5581C119.243 38.991 119.389 38.5509 119.681 38.2378C119.973 37.9246 120.352 37.7681 120.817 37.7681C121.268 37.7681 121.636 37.9215 121.922 38.2283C122.207 38.5351 122.35 38.9667 122.35 39.5232C122.35 39.557 122.349 39.6078 122.347 39.6755H119.833C119.854 40.0458 119.959 40.3293 120.147 40.5261C120.336 40.7229 120.571 40.8213 120.852 40.8213C121.062 40.8213 121.24 40.7663 121.388 40.6562C121.537 40.5462 121.654 40.3706 121.741 40.1294ZM119.865 39.2058H121.747C121.722 38.9223 121.65 38.7096 121.531 38.5679C121.349 38.3478 121.113 38.2378 120.823 38.2378C120.561 38.2378 120.34 38.3256 120.16 38.5012C119.982 38.6768 119.884 38.9117 119.865 39.2058ZM122.823 40.2087L123.388 40.1199C123.42 40.3463 123.507 40.5198 123.651 40.6404C123.797 40.761 124 40.8213 124.261 40.8213C124.523 40.8213 124.718 40.7684 124.845 40.6626C124.972 40.5547 125.035 40.4288 125.035 40.2849C125.035 40.1558 124.979 40.0543 124.867 39.9802C124.789 39.9294 124.594 39.8649 124.283 39.7866C123.864 39.6808 123.573 39.5898 123.41 39.5137C123.249 39.4354 123.127 39.3285 123.042 39.1931C122.959 39.0556 122.918 38.9043 122.918 38.7393C122.918 38.589 122.952 38.4504 123.02 38.3235C123.09 38.1944 123.184 38.0876 123.302 38.0029C123.391 37.9373 123.512 37.8823 123.664 37.8379C123.819 37.7913 123.984 37.7681 124.159 37.7681C124.424 37.7681 124.655 37.8062 124.854 37.8823C125.055 37.9585 125.203 38.0622 125.299 38.1934C125.394 38.3224 125.459 38.4959 125.495 38.7139L124.937 38.79C124.911 38.6165 124.837 38.4811 124.715 38.3838C124.594 38.2865 124.423 38.2378 124.2 38.2378C123.938 38.2378 123.751 38.2812 123.639 38.3679C123.527 38.4547 123.47 38.5562 123.47 38.6726C123.47 38.7467 123.494 38.8133 123.54 38.8726C123.587 38.9339 123.66 38.9847 123.759 39.0249C123.816 39.0461 123.985 39.0947 124.264 39.1709C124.668 39.2788 124.949 39.3677 125.108 39.4375C125.269 39.5052 125.395 39.6047 125.486 39.7358C125.577 39.867 125.622 40.0299 125.622 40.2246C125.622 40.415 125.566 40.5949 125.454 40.7642C125.344 40.9313 125.184 41.0614 124.975 41.1545C124.765 41.2455 124.528 41.291 124.264 41.291C123.826 41.291 123.492 41.2 123.261 41.0181C123.032 40.8361 122.886 40.5663 122.823 40.2087ZM129.358 40.7039L129.44 41.2085C129.28 41.2424 129.136 41.2593 129.009 41.2593C128.801 41.2593 128.641 41.2265 128.526 41.1609C128.412 41.0953 128.332 41.0096 128.285 40.9038C128.239 40.7959 128.215 40.5706 128.215 40.2278V38.2886H127.796V37.8442H128.215V37.0095L128.783 36.6667V37.8442H129.358V38.2886H128.783V40.2595C128.783 40.4224 128.793 40.5272 128.812 40.5737C128.833 40.6203 128.866 40.6573 128.91 40.6848C128.957 40.7123 129.023 40.7261 129.107 40.7261C129.171 40.7261 129.254 40.7187 129.358 40.7039ZM129.707 39.5295C129.707 38.9054 129.881 38.443 130.228 38.1426C130.517 37.8929 130.871 37.7681 131.288 37.7681C131.751 37.7681 132.13 37.9204 132.424 38.2251C132.718 38.5277 132.865 38.9466 132.865 39.4819C132.865 39.9157 132.799 40.2574 132.668 40.5071C132.539 40.7546 132.35 40.9472 132.1 41.0847C131.853 41.2222 131.582 41.291 131.288 41.291C130.816 41.291 130.434 41.1397 130.142 40.8372C129.852 40.5346 129.707 40.0987 129.707 39.5295ZM130.294 39.5295C130.294 39.9612 130.388 40.2849 130.577 40.5007C130.765 40.7144 131.002 40.8213 131.288 40.8213C131.571 40.8213 131.807 40.7134 131.995 40.4976C132.184 40.2817 132.278 39.9527 132.278 39.5105C132.278 39.0937 132.183 38.7784 131.992 38.5647C131.804 38.3489 131.569 38.241 131.288 38.241C131.002 38.241 130.765 38.3478 130.577 38.5615C130.388 38.7752 130.294 39.0979 130.294 39.5295ZM135.118 40.2087L135.683 40.1199C135.715 40.3463 135.803 40.5198 135.947 40.6404C136.093 40.761 136.296 40.8213 136.556 40.8213C136.819 40.8213 137.013 40.7684 137.14 40.6626C137.267 40.5547 137.331 40.4288 137.331 40.2849C137.331 40.1558 137.274 40.0543 137.162 39.9802C137.084 39.9294 136.889 39.8649 136.578 39.7866C136.159 39.6808 135.868 39.5898 135.706 39.5137C135.545 39.4354 135.422 39.3285 135.337 39.1931C135.255 39.0556 135.214 38.9043 135.214 38.7393C135.214 38.589 135.247 38.4504 135.315 38.3235C135.385 38.1944 135.479 38.0876 135.598 38.0029C135.687 37.9373 135.807 37.8823 135.959 37.8379C136.114 37.7913 136.279 37.7681 136.455 37.7681C136.719 37.7681 136.951 37.8062 137.15 37.8823C137.351 37.9585 137.499 38.0622 137.594 38.1934C137.689 38.3224 137.755 38.4959 137.791 38.7139L137.232 38.79C137.207 38.6165 137.133 38.4811 137.01 38.3838C136.889 38.2865 136.718 38.2378 136.496 38.2378C136.233 38.2378 136.046 38.2812 135.934 38.3679C135.822 38.4547 135.766 38.5562 135.766 38.6726C135.766 38.7467 135.789 38.8133 135.836 38.8726C135.882 38.9339 135.955 38.9847 136.055 39.0249C136.112 39.0461 136.28 39.0947 136.559 39.1709C136.963 39.2788 137.245 39.3677 137.404 39.4375C137.564 39.5052 137.69 39.6047 137.781 39.7358C137.872 39.867 137.918 40.0299 137.918 40.2246C137.918 40.415 137.862 40.5949 137.75 40.7642C137.639 40.9313 137.48 41.0614 137.27 41.1545C137.061 41.2455 136.824 41.291 136.559 41.291C136.121 41.291 135.787 41.2 135.556 41.0181C135.328 40.8361 135.182 40.5663 135.118 40.2087ZM138.597 41.2148V36.562H139.168V38.2314C139.435 37.9225 139.771 37.7681 140.177 37.7681C140.427 37.7681 140.644 37.8178 140.828 37.9172C141.012 38.0146 141.143 38.15 141.222 38.3235C141.302 38.497 141.342 38.7488 141.342 39.0789V41.2148H140.771V39.0789C140.771 38.7932 140.709 38.5859 140.584 38.4568C140.461 38.3256 140.286 38.26 140.06 38.26C139.891 38.26 139.731 38.3044 139.581 38.3933C139.433 38.4801 139.327 38.5986 139.263 38.7488C139.2 38.899 139.168 39.1064 139.168 39.3708V41.2148H138.597ZM142.002 39.5295C142.002 38.9054 142.176 38.443 142.523 38.1426C142.813 37.8929 143.166 37.7681 143.583 37.7681C144.046 37.7681 144.425 37.9204 144.719 38.2251C145.013 38.5277 145.16 38.9466 145.16 39.4819C145.16 39.9157 145.095 40.2574 144.964 40.5071C144.835 40.7546 144.645 40.9472 144.396 41.0847C144.148 41.2222 143.877 41.291 143.583 41.291C143.111 41.291 142.729 41.1397 142.437 40.8372C142.147 40.5346 142.002 40.0987 142.002 39.5295ZM142.59 39.5295C142.59 39.9612 142.684 40.2849 142.872 40.5007C143.06 40.7144 143.297 40.8213 143.583 40.8213C143.867 40.8213 144.102 40.7134 144.291 40.4976C144.479 40.2817 144.573 39.9527 144.573 39.5105C144.573 39.0937 144.478 38.7784 144.288 38.5647C144.099 38.3489 143.864 38.241 143.583 38.241C143.297 38.241 143.06 38.3478 142.872 38.5615C142.684 38.7752 142.59 39.0979 142.59 39.5295ZM145.833 42.5066V37.8442H146.354V38.2822C146.476 38.1108 146.615 37.9828 146.77 37.8982C146.924 37.8114 147.111 37.7681 147.331 37.7681C147.619 37.7681 147.873 37.8421 148.093 37.9902C148.313 38.1383 148.479 38.3478 148.591 38.6187C148.703 38.8874 148.76 39.1825 148.76 39.5042C148.76 39.849 148.697 40.1601 148.572 40.4373C148.45 40.7123 148.27 40.9239 148.033 41.072C147.798 41.218 147.55 41.291 147.29 41.291C147.1 41.291 146.928 41.2508 146.776 41.1704C146.626 41.09 146.502 40.9884 146.405 40.8657V42.5066H145.833ZM146.351 39.5486C146.351 39.9823 146.438 40.3029 146.614 40.5103C146.79 40.7176 147.002 40.8213 147.252 40.8213C147.506 40.8213 147.723 40.7144 147.903 40.5007C148.085 40.2849 148.176 39.9517 148.176 39.501C148.176 39.0715 148.087 38.7498 147.909 38.5361C147.733 38.3224 147.523 38.2156 147.277 38.2156C147.034 38.2156 146.818 38.3298 146.63 38.5583C146.444 38.7847 146.351 39.1148 146.351 39.5486Z" fill="#1D1D1D"/>
<path d="M162.657 6.73438C163.087 6.73438 163.507 6.84231 163.917 7.0576C164.326 7.27347 164.646 7.58169 164.874 7.98284C165.103 8.38399 165.217 8.80245 165.217 9.23823C165.217 9.66939 165.104 10.0838 164.879 10.4821C164.654 10.8803 164.338 11.1891 163.932 11.409C163.526 11.629 163.101 11.7392 162.657 11.7392C162.213 11.7392 161.789 11.629 161.382 11.409C160.976 11.1891 160.66 10.8798 160.433 10.4821C160.207 10.0838 160.094 9.66939 160.094 9.23823C160.094 8.80245 160.208 8.38399 160.438 7.98284C160.668 7.58169 160.988 7.27289 161.398 7.0576C161.807 6.84231 162.227 6.73438 162.657 6.73438ZM162.657 7.1488C162.297 7.1488 161.947 7.23884 161.606 7.41892C161.265 7.59901 160.999 7.85701 160.807 8.19178C160.614 8.52655 160.519 8.87575 160.519 9.23823C160.519 9.59897 160.613 9.94413 160.802 10.2749C160.991 10.6056 161.255 10.863 161.595 11.0477C161.935 11.2324 162.289 11.3248 162.658 11.3248C163.027 11.3248 163.381 11.2324 163.721 11.0477C164.06 10.863 164.324 10.6056 164.512 10.2749C164.699 9.94413 164.793 9.59897 164.793 9.23823C164.793 8.87575 164.698 8.52655 164.506 8.19178C164.315 7.85701 164.048 7.59901 163.707 7.41892C163.364 7.23884 163.015 7.1488 162.657 7.1488ZM161.533 10.6218V7.92858H162.481C162.804 7.92858 163.038 7.9534 163.184 8.00304C163.328 8.05268 163.444 8.13983 163.53 8.26335C163.616 8.38745 163.659 8.51905 163.659 8.65815C163.659 8.85497 163.586 9.0264 163.443 9.17243C163.299 9.31846 163.109 9.40042 162.871 9.41774C162.968 9.45756 163.046 9.50489 163.105 9.5603C163.216 9.6665 163.352 9.84428 163.513 10.0942L163.849 10.6218H163.305L163.061 10.1969C162.868 9.86333 162.713 9.65381 162.596 9.57011C162.514 9.50835 162.395 9.47719 162.239 9.47719H161.978V10.6218H161.533ZM161.978 9.10605H162.518C162.776 9.10605 162.953 9.06853 163.046 8.9935C163.14 8.91847 163.188 8.81861 163.188 8.69509C163.188 8.61544 163.165 8.54445 163.12 8.48095C163.074 8.41804 163.012 8.37071 162.931 8.34012C162.851 8.30895 162.702 8.29394 162.485 8.29394H161.979V9.10605H161.978Z" fill="#292930"/>
<path d="M96.7977 32.4948C98.5719 33.1273 102.68 30.2602 103.481 29.6796L103.601 29.5966L104.057 27.7717L103.303 28.0724C102.607 28.3523 101.67 28.5079 101.477 28.2953C101.393 28.2123 101.367 27.8442 101.806 27.0303L109.123 14.4008L109.353 14.0638C109.568 13.7786 109.782 13.4883 109.583 13.1772C109.385 12.8662 108.971 12.9025 108.563 12.9647L105.255 13.4054L105.151 13.5713C105.093 13.6594 99.2627 22.8775 95.7248 25.6097C94.4844 26.5637 94.003 26.7296 93.8355 26.7607C93.8355 26.4185 94.228 25.4594 94.9869 24.381L99.247 17.6256L99.7861 16.739C99.9588 16.459 100.718 14.9296 100.718 13.7579C100.718 13.3328 100.618 12.9595 100.357 12.7106C99.5872 11.9796 98.127 12.8143 97.6508 13.0943C97.6456 13.0995 93.3278 15.6451 93.3278 15.6451L93.3802 17.4959L93.9035 17.4182C93.9035 17.4182 94.5368 17.33 94.6048 17.3249C94.5944 17.6152 94.1233 18.3877 93.9297 18.6884L93.7046 19.0669L93.6 19.2483C90.9779 23.7588 88 29.3478 88 31.489C88 31.6704 88.0262 31.8311 88.068 31.9608C88.0942 32.0282 88.2303 32.3444 88.56 32.4844C90.5592 33.2673 94.6415 29.721 96.8762 27.5643C96.4418 28.6945 96.0022 30.0477 96.0022 31.0587C96.0022 31.3697 96.0441 31.6393 96.1383 31.8674C96.2011 32.0022 96.4104 32.3548 96.7977 32.4948Z" fill="#00A94F"/>
<path d="M144.371 32.4822C146.15 33.1147 150.253 30.2477 151.054 29.667L151.174 29.584L151.635 27.7643L150.876 28.065C150.18 28.3398 149.248 28.4953 149.049 28.2879C148.966 28.1998 148.94 27.8369 149.384 27.0229L156.696 14.3934L156.937 14.0564C157.146 13.7764 157.366 13.4809 157.167 13.1699C156.968 12.864 156.549 12.9003 156.141 12.9625L152.833 13.4032L152.723 13.5691C152.666 13.6624 146.841 22.8753 143.303 25.6075C142.063 26.5615 141.576 26.7274 141.414 26.7585C141.419 26.4163 141.811 25.4572 142.565 24.3788L146.825 17.6234L147.364 16.742C147.537 16.462 148.301 14.9326 148.301 13.7661C148.301 13.3409 148.196 12.9677 147.935 12.7136C147.171 11.9826 145.71 12.8225 145.234 13.0973C145.224 13.1025 140.911 15.6429 140.911 15.6429L140.958 17.4937L141.487 17.4212C141.487 17.4212 142.115 17.333 142.183 17.3227C142.178 17.613 141.696 18.3855 141.508 18.6966L141.283 19.0647L141.178 19.2461C138.556 23.7515 135.578 29.3456 135.578 31.4868C135.578 31.6682 135.599 31.8289 135.646 31.9586C135.672 32.026 135.808 32.3422 136.138 32.4822C138.143 33.2702 142.225 29.724 144.454 27.5673C144.015 28.6975 143.586 30.0506 143.586 31.0616C143.586 31.3675 143.627 31.6423 143.722 31.8652C143.769 31.9897 143.983 32.3474 144.371 32.4822Z" fill="#00A94F"/>
<path d="M130.919 12.7693C130.919 12.7693 137.613 9.28013 134.384 6.48049C132.212 4.59333 127.23 10.9081 126.267 13.6766C124.283 19.4366 119.447 24.336 119.447 24.336C119.447 24.336 124.576 31.1795 128.046 30.8011C131.516 30.4226 132.348 26.8816 132.348 26.8816H135.818C135.818 26.8816 131.772 33.4763 124.974 34.3473C120.463 34.9228 115.355 28.6547 115.355 28.6547C115.355 28.6547 112.073 30.9773 110.226 31.755C108.917 32.2994 107.106 32.4394 105.976 31.9417C105.531 31.7447 105.191 31.4025 105.112 31.0033C105.05 30.6611 105.055 30.2671 105.144 29.9093C106.29 25.518 114.318 25.1292 114.318 25.1292C114.318 25.1292 117.987 15.486 122.708 10.1978C127.842 4.45335 134.797 1.75221 137.461 4.7022C140.12 7.6522 138.105 11.131 135.823 12.7641C132.557 15.1179 130.919 12.7693 130.919 12.7693Z" fill="#00A94F"/>
<path d="M83.3902 12.7532C83.3902 12.7532 90.0945 9.26401 86.8549 6.46437C84.6829 4.5772 79.6953 10.8919 78.7375 13.6605C76.754 19.4205 71.9181 24.3199 71.9181 24.3199C71.9181 24.3199 77.0523 31.1634 80.5222 30.785C83.9921 30.4117 84.8242 26.8655 84.8242 26.8655H88.2941C88.2941 26.8655 84.2485 33.4602 77.4501 34.3312C72.9439 34.9066 67.8254 28.6334 67.8254 28.6334C67.8254 28.6334 64.544 30.9612 62.6913 31.7389C61.3933 32.2833 59.5773 32.4181 58.452 31.9255C58.0072 31.7285 57.6618 31.3864 57.5885 30.9923C57.5257 30.6502 57.5309 30.2561 57.6251 29.8984C58.7661 25.5071 66.7944 25.1183 66.7944 25.1183C66.7944 25.1183 70.4632 15.4751 75.1839 10.1869C80.3128 4.44759 87.2788 1.74646 89.9375 4.69126C92.5961 7.64126 90.5707 11.1201 88.2993 12.7532C85.0336 15.107 83.3902 12.7532 83.3902 12.7532Z" fill="#00A94F"/>
<path d="M1.25781 4.9676C1.25781 4.9676 4.69843 4.76472 10.4942 2.83739C17.8943 0.375816 35.1929 -2.41713 40.5791 12.021C44.047 21.333 37.0019 30.7939 36.804 34.0737C36.565 37.8405 37.0497 39.5649 37.0497 39.5649L31.6635 41.0459C31.6635 41.0459 30.4006 37.3468 31.172 33.3231C32.1755 28.0821 37.0361 21.0355 36.5377 16.2814C36.0394 11.5205 34.1894 3.81796 24.1201 1.35639C19.0548 0.118838 13.5184 5.61681 9.49071 6.92875C5.46983 8.24745 2.60265 9.22802 2.60265 9.22802L1.25781 4.9676Z" fill="#EF233C"/>
<path d="M10.4785 2.79681C4.76464 4.69033 1.2899 4.9135 1.25577 4.92026H1.1875L2.5733 9.29564L9.50231 6.98285C10.8676 6.53652 12.3968 5.62357 14.0147 4.64976C17.1754 2.75624 20.7594 0.598978 24.0976 1.41725C31.5864 3.24314 35.6346 8.11219 36.4811 16.2881C36.7678 19.0676 35.1977 22.6788 33.6822 26.175C32.624 28.6231 31.525 31.1455 31.1085 33.3163C30.3508 37.2995 31.5932 41.0256 31.6069 41.0594L31.6205 41.1L37.1023 39.5987V39.5649C37.1023 39.5379 36.4947 37.4077 36.8361 34.1143C36.9589 32.8429 37.5802 31.3281 38.3994 29.4075C40.2494 25.0727 43.0551 18.5198 40.618 12.0074C34.4194 -4.63525 12.9156 1.97854 10.4785 2.79681ZM10.5126 2.89149C12.9361 2.08674 34.3512 -4.50676 40.5361 12.0412C41.1983 13.8333 41.4713 15.6322 41.4713 17.3904C41.4713 21.9619 39.635 26.2426 38.3038 29.3602C37.4778 31.2943 36.8019 33.2892 36.5835 34.493C36.2695 36.1701 36.9794 39.2944 36.9931 39.5243C36.9112 39.5446 31.8048 40.9512 31.7024 40.9851C31.6205 40.7348 30.9788 38.6723 30.9788 36.0349C30.9788 35.1828 31.0539 34.2631 31.2246 33.3433C31.6342 31.1861 32.7333 28.6636 33.7914 26.2224C35.1908 22.9966 36.6313 19.6762 36.6313 16.9779C36.6313 16.7345 36.6244 16.4978 36.5971 16.2746C35.737 8.04457 31.6615 3.14847 24.1249 1.30905C20.7457 0.484014 17.1413 2.64804 13.9601 4.55508C12.3422 5.52889 10.8267 6.44184 9.46818 6.88141C9.46818 6.88141 3.18087 8.98457 2.63474 9.16716C2.60061 9.06572 1.37182 5.13666 1.32403 5.0217C1.67902 4.99465 5.05819 4.70386 10.5126 2.89149Z" fill="#EF233C"/>
<path d="M3.27344 11.3593C3.27344 11.3593 10.9875 7.91712 16.872 4.63727C23.6645 0.850235 42.7312 -3.39666 48.1174 11.0414C51.5922 20.3467 46.5337 29.1178 45.6121 32.844C44.8202 36.0291 45.694 37.5575 45.694 37.5575L40.3078 39.0385C40.3078 39.0385 39.4613 37.5169 40.2327 33.4999C41.2362 28.2589 44.5949 24.6477 44.5949 16.1201C44.5949 11.339 41.0109 3.13598 30.8188 1.20189C24.7704 0.0522513 19.9372 4.25181 16.7014 6.93655C12.1685 10.7101 4.10628 15.3019 4.10628 15.3019L3.27344 11.3593Z" fill="#EF233C"/>
<path d="M29.7879 1.0006C27.856 0.818008 26.0538 1.18995 24.3881 1.83916C21.3161 2.56275 18.6332 3.60419 16.8515 4.59829C11.042 7.83756 3.3348 11.2797 3.25971 11.3135L3.21875 11.3338L4.0789 15.3846L4.14717 15.3508C4.22909 15.3034 12.264 10.7184 16.7491 6.97871L17.0085 6.76231C18.9268 5.15958 21.4526 3.09699 24.4359 1.94059C26.1289 1.5416 27.9311 1.23729 29.7879 1.10204C30.1292 1.13585 30.4774 1.18319 30.8256 1.25081C40.9016 3.15786 44.5471 11.185 44.5471 16.1217C44.5471 21.5656 43.1612 25.0618 41.9325 28.1456C41.2225 29.9174 40.5467 31.6012 40.1917 33.4948C39.9527 34.7594 39.864 35.7737 39.864 36.5717C39.864 38.2962 40.2531 39.0265 40.2804 39.0671L40.3009 39.1009L45.7963 37.5929L45.7485 37.5388C45.7417 37.5252 44.8952 35.9834 45.6734 32.8591C45.8646 32.1017 46.2264 31.1143 46.6496 29.9715C48.3563 25.3797 50.9436 18.4413 48.172 11.0295C46.5404 6.64734 43.5299 3.64476 39.2223 2.1029C36.2391 1.02765 32.9555 0.777432 29.7879 1.0006ZM29.0438 1.06822C27.7195 1.18995 26.4087 1.38606 25.1663 1.6498C26.3883 1.25757 27.6785 1.03441 29.0438 1.06822ZM16.9129 4.6862C18.5308 3.78678 20.9133 2.83325 23.6576 2.12318C20.9679 3.32016 18.6947 5.21368 16.9334 6.68792L16.674 6.90432C12.3664 10.4885 4.7957 14.8571 4.154 15.2223C4.11986 15.087 3.35528 11.4758 3.34163 11.3947C3.77171 11.1986 11.2332 7.85108 16.9129 4.6862ZM39.1882 2.19757C43.4616 3.73268 46.4517 6.71497 48.0764 11.0633C48.9502 13.4032 49.2915 15.6957 49.2915 17.88C49.2915 22.5935 47.7214 26.8133 46.5609 29.9309C46.124 31.0805 45.7622 32.0679 45.5779 32.8388C45.3253 33.8396 45.2365 34.685 45.2365 35.3612C45.2365 36.6867 45.5506 37.3697 45.6325 37.532C45.5164 37.5658 40.4374 38.9589 40.3487 38.9792C40.2668 38.8101 39.9664 38.0663 39.9664 36.5447C39.9664 35.7467 40.0551 34.7526 40.2872 33.5083C40.6491 31.6215 41.3249 29.9444 42.0212 28.1726C43.2568 25.0821 44.6494 21.5791 44.6494 16.1149C44.6494 11.1445 40.9699 3.06318 30.8324 1.13585C30.6754 1.1088 30.5252 1.09527 30.3682 1.07499C33.3446 0.926209 36.3893 1.19671 39.1882 2.19757Z" fill="#EF233C"/>
<path d="M19.2613 23.2891H10.3594C10.3867 23.5393 10.414 23.7827 10.4481 24.0262H19.9098C19.6709 23.8098 19.4388 23.5663 19.2613 23.2891Z" fill="#00A94F"/>
<path d="M25.6016 24.0301H32.5306C32.5647 23.7866 32.5988 23.5364 32.6193 23.293H26.2569C26.0726 23.5635 25.8473 23.8069 25.6016 24.0301Z" fill="#00A94F"/>
<path d="M12.0687 28.2663H30.9238C31.0877 28.0296 31.2379 27.7794 31.3812 27.5156H11.625C11.7615 27.7794 11.9117 28.0228 12.0687 28.2663Z" fill="#00A94F"/>
<path d="M13.1593 29.6697H29.8162C30.0279 29.433 30.2395 29.1828 30.4374 28.9258H12.5312C12.7224 29.1828 12.9408 29.433 13.1593 29.6697Z" fill="#00A94F"/>
<path d="M22.7558 25.1281C22.1005 25.1281 21.4792 24.9658 20.9195 24.6953H10.5703C10.6249 24.9523 10.6932 25.1957 10.7683 25.4392H32.2312C32.2994 25.1957 32.3745 24.9455 32.4223 24.6953H24.599C24.046 24.9658 23.4248 25.1281 22.7558 25.1281Z" fill="#00A94F"/>
<path d="M11.2847 26.8494H31.6963C31.8124 26.6059 31.9079 26.3557 31.9967 26.1055H10.9844C11.0799 26.3557 11.1755 26.6059 11.2847 26.8494Z" fill="#00A94F"/>
<path d="M14.7214 31.0866H28.2722C28.5863 30.8567 28.8866 30.5997 29.1665 30.3359H13.8203C14.1002 30.5997 14.4074 30.8499 14.7214 31.0866Z" fill="#00A94F"/>
<path d="M21.4818 33.3225C22.1371 33.3225 22.7788 33.2616 23.4 33.1602H19.5703C20.1984 33.2616 20.8332 33.3225 21.4818 33.3225Z" fill="#00A94F"/>
<path d="M17.2001 32.4967H25.7812C26.3 32.2871 26.7915 32.0301 27.2625 31.7461H15.7188C16.1966 32.0301 16.6881 32.2803 17.2001 32.4967Z" fill="#00A94F"/>
<path d="M14.2109 14.159H28.7653C28.4444 13.8953 28.1236 13.645 27.7754 13.4219H15.194C14.8526 13.6518 14.5318 13.8953 14.2109 14.159Z" fill="#00A94F"/>
<path d="M12.8047 15.572H30.1784C29.96 15.315 29.7347 15.0648 29.5026 14.8281H13.4873C13.2416 15.0648 13.0163 15.315 12.8047 15.572Z" fill="#00A94F"/>
<path d="M26.6172 22.6178H32.6519C32.6519 22.5502 32.6587 22.4893 32.6587 22.4217C32.6587 22.2324 32.6451 22.0498 32.6246 21.8672H26.8561C26.8015 22.1377 26.7196 22.3811 26.6172 22.6178Z" fill="#00A94F"/>
<path d="M18.6546 21.875H10.3398C10.333 22.0576 10.3125 22.2402 10.3125 22.4295C10.3125 22.4904 10.3193 22.558 10.3193 22.6256H18.8935C18.7843 22.3822 18.7092 22.1387 18.6546 21.875Z" fill="#00A94F"/>
<path d="M12.0078 16.9861H22.3979C22.514 16.9725 22.6368 16.9523 22.7597 16.9523C22.8894 16.9523 23.0055 16.9793 23.1352 16.9861H31.1633C31.0131 16.7291 30.8629 16.4856 30.6922 16.2422H12.4993C12.4311 16.4315 12.0624 16.8508 12.0078 16.9861Z" fill="#00A94F"/>
<path d="M16.3516 12.7517H26.6393C26.0522 12.4541 25.4378 12.1972 24.7961 12.0078H18.2016C17.5599 12.1972 16.9455 12.4541 16.3516 12.7517Z" fill="#00A94F"/>
<path d="M18.5611 21.0436C18.5611 20.8475 18.5952 20.6581 18.6225 20.4688H10.4989C10.4511 20.719 10.4169 20.9624 10.3828 21.2126H18.5816C18.5816 21.1518 18.5611 21.0977 18.5611 21.0436Z" fill="#00A94F"/>
<path d="M26.953 21.0436C26.953 21.1044 26.9326 21.1585 26.9326 21.2126H32.5918C32.5645 20.9624 32.5236 20.719 32.4758 20.4688H26.8984C26.9257 20.6581 26.953 20.8475 26.953 21.0436Z" fill="#00A94F"/>
<path d="M19.1144 19.0625H10.8679C10.7791 19.306 10.7177 19.5562 10.6562 19.8064H18.7867C18.8687 19.5426 18.9779 19.2992 19.1144 19.0625Z" fill="#00A94F"/>
<path d="M26.7496 19.7986H32.3337C32.2723 19.5484 32.204 19.2981 32.1221 19.0547H26.4219C26.5516 19.2981 26.6676 19.5416 26.7496 19.7986Z" fill="#00A94F"/>
<path d="M25.9354 18.3923H31.8677C31.7653 18.1421 31.6424 17.8919 31.5196 17.6484H25.1094C25.4234 17.8513 25.6965 18.1151 25.9354 18.3923Z" fill="#00A94F"/>
<path d="M20.4134 17.6484H11.7231C11.6002 17.8919 11.4227 18.1353 11.3203 18.3923H19.5873C19.8331 18.1151 20.1062 17.8513 20.4134 17.6484Z" fill="#00A94F"/>
<path d="M21.9333 14.6512C21.9333 14.6512 27.4287 11.7433 24.78 9.39673C22.9914 7.82782 18.9023 13.1026 18.1172 15.4154C16.4857 20.2236 12.5194 24.315 12.5194 24.315C12.5194 24.315 16.7383 30.0429 19.5781 29.725C22.4248 29.4072 23.1075 26.4452 23.1075 26.4452H25.9542C25.9542 26.4452 22.6365 31.9567 17.0591 32.6803C13.3523 33.1604 9.16756 27.9194 9.16756 27.9194C9.16756 27.9194 6.46423 29.7318 4.94872 30.381C3.43321 31.0302 0.893711 30.9761 0.757179 29.8806C0.25201 25.6201 8.30741 24.9777 8.30741 24.9777C8.30741 24.9777 11.3179 16.9167 15.1955 12.5008C19.4007 7.69933 25.1145 5.44739 27.2922 7.90897C29.4767 10.3705 27.811 13.2784 25.9474 14.6445C23.2782 16.6124 21.9333 14.6512 21.9333 14.6512Z" fill="#EF233C"/>
<path d="M24.7414 6.73447C21.9152 6.73447 18.024 9.01345 15.0544 12.388C11.4431 16.5064 8.54865 23.8573 8.17319 24.8108C7.41543 24.8852 3.06688 25.3924 1.29879 27.5091C0.800446 28.1042 0.554688 28.7804 0.554688 29.504C0.554688 29.6461 0.561514 29.7745 0.575167 29.9098C0.6093 30.2141 0.807272 30.4711 1.12812 30.6604C1.98145 31.1338 3.77002 31.0865 5.01929 30.5522C6.36413 29.9774 8.5623 28.5302 9.12891 28.1651C9.79792 28.9698 13.5935 33.3181 17.0751 32.8583C22.6797 32.1279 26.0726 26.5894 26.1067 26.5353L26.2569 26.2715H22.9596L22.9323 26.4068C22.9255 26.4338 22.236 29.2538 19.5531 29.5514C17.0546 29.8219 13.3409 25.1016 12.7538 24.3307C13.3614 23.6747 16.8088 19.8539 18.2834 15.4717C18.8841 13.7134 21.6762 9.83849 23.6286 9.33806C24.0519 9.22309 24.3864 9.29072 24.6595 9.52741C25.1646 9.97374 25.3762 10.4471 25.308 10.9814C25.0895 12.7599 21.881 14.4844 21.8469 14.4979L21.6762 14.5858L21.7854 14.7481C21.8059 14.7819 22.3111 15.4988 23.3078 15.6678C24.1611 15.8098 25.0827 15.5123 26.0657 14.7955C27.117 14.0245 28.3185 12.5976 28.496 10.9205C28.6189 9.78438 28.2639 8.73619 27.4447 7.80295C26.8098 7.09964 25.8814 6.7277 24.7414 6.73447ZM1.28513 30.3697C1.05986 30.2344 0.950631 30.0721 0.902845 29.8895C0.718526 29.1659 1.05303 28.3612 1.57868 27.739C3.38773 25.5818 8.26876 25.1625 8.3302 25.1625L8.43942 25.1489L8.47356 25.0407C8.50769 24.9664 11.5182 16.9595 15.3275 12.6247C18.2356 9.31777 22.0176 7.09288 24.7482 7.08612C25.7927 7.08612 26.605 7.40396 27.1648 8.03288C27.9226 8.88496 28.2502 9.84525 28.1342 10.8867C27.9635 12.4488 26.8371 13.7878 25.8473 14.5114C24.953 15.1742 24.1338 15.4447 23.3829 15.3229C22.7821 15.2215 22.3998 14.8901 22.2155 14.7075C22.946 14.2883 25.465 12.7329 25.6766 11.0287C25.6903 10.9543 25.6903 10.8799 25.6903 10.8055C25.6903 10.2442 25.4309 9.73028 24.912 9.27043C24.5502 8.94583 24.086 8.85791 23.5467 8.99993C21.41 9.5477 18.5633 13.5647 17.9557 15.3635C16.3583 20.077 12.4398 24.1616 12.3989 24.2022L12.2965 24.3104L12.3784 24.4321C12.5559 24.6688 16.686 30.2344 19.6078 29.903C22.1882 29.619 23.0689 27.2183 23.2532 26.6299H25.6357C24.8984 27.7255 21.7718 31.9048 17.041 32.5202C13.4843 32.9868 9.35419 27.881 9.31323 27.8337L9.21083 27.6984L9.06747 27.7864C9.04016 27.8066 6.37096 29.5987 4.88959 30.2344C3.73589 30.7213 2.13846 30.8836 1.28513 30.3697Z" fill="white"/>
<path d="M19.7674 20.2293C20.1224 18.8294 21.4127 17.7812 22.9623 17.7812C23.5153 17.7812 24.0341 17.9165 24.4915 18.1532C24.7509 18.2817 24.5461 18.6671 24.2935 18.5319C23.8907 18.329 23.447 18.2141 22.9691 18.2141C21.6379 18.2141 20.5115 19.1202 20.2112 20.3375C20.1224 20.608 19.6924 20.5066 19.7674 20.2293ZM19.6719 21.3113C19.6719 21.1558 19.6855 21.007 19.6992 20.8582C19.7401 20.5742 20.177 20.6351 20.1361 20.9191C20.1156 21.0476 20.1088 21.1828 20.1088 21.3113C20.1088 21.6021 19.6719 21.6021 19.6719 21.3113Z" fill="#EF233C"/>
<path d="M25.9472 22.0097C25.4762 23.2337 24.2611 24.0993 22.8548 24.0993C22.5476 24.0993 22.254 24.0655 21.981 23.9844C21.7011 23.9032 21.8171 23.4907 22.097 23.5719C22.336 23.6395 22.5886 23.6665 22.8548 23.6665C24.0768 23.6665 25.1281 22.9091 25.5308 21.8542C25.6332 21.5904 26.0496 21.746 25.9472 22.0097ZM26.152 20.8939C26.152 21.1035 26.1247 21.3132 26.0838 21.5093C26.0292 21.7933 25.5923 21.7121 25.6537 21.4281C25.681 21.2591 25.7083 21.0765 25.7083 20.8939C25.7083 20.6031 26.152 20.6031 26.152 20.8939Z" fill="#EF233C"/>
</svg>
