<?xml version="1.0" encoding="utf-8"?>
<!-- Generator: Adobe Illustrator 24.0.2, SVG Export Plug-In . SVG Version: 6.00 Build 0)  -->
<svg version="1.0" id="Layer_1" xmlns="http://www.w3.org/2000/svg" xmlns:xlink="http://www.w3.org/1999/xlink" x="0px" y="0px"
	 viewBox="0 0 300 280" enable-background="new 0 0 300 280" xml:space="preserve">
<g>
	<path fill-rule="evenodd" clip-rule="evenodd" d="M56.4,126.85l-6.26,20.55c-2.44,8.03,1.12,12.4,10.19,12.4
		c9.07,0,15.22-4.38,17.66-12.4l6.26-20.55h-9.43L68.8,146.6c-1.07,3.52-2.61,5.08-6,5.08c-3.39,0-4.06-1.56-2.98-5.08l6.02-19.75
		H56.4z M78.52,158.91h8.7l9.77-32.06h-8.7L78.52,158.91z M103.54,150.13l2.88-9.45h4.04l1.66-5.44h-4.04l2.23-7.31h-8.58
		l-2.23,7.31h-3.06l-1.66,5.44h3.06l-3.61,11.86c-1.56,5.13-0.07,6.79,5.29,6.79c1.68,0,3.5-0.09,5.42-0.22l2.08-6.83
		c-0.46,0.04-0.87,0.04-1.24,0.04C103.69,152.31,103.03,151.82,103.54,150.13L103.54,150.13z M107.65,158.91h8.37l2.96-9.72
		c1.95-6.41,4.31-7.58,10.88-6.3l2.29-8.28h-2.4c-3.51,0-6.04,1.47-8.25,4.95l1.32-4.32h-7.96L107.65,158.91z M141.71,158.91h8.66
		l0.2-0.67c-0.48-0.45-0.59-1.16-0.33-2.01l4.02-13.2c0.96-3.17,1.02-4.95-0.75-6.65c-1.14-1.07-3.88-2.01-7.84-2.01
		c-7.6,0-12.36,2.76-14.06,8.07h8.41c0.65-1.61,1.82-2.36,3.62-2.36c2.08,0,2.93,0.58,2.51,1.96c-0.67,2.18-2.39,1.96-6.74,2.54
		c-6.68,0.89-10.16,2.36-11.76,7.62c-1.45,4.77,0.44,7.54,5.38,7.54c3.19,0,5.98-0.99,8.84-3.13L141.71,158.91z M144.15,148.34
		c-0.08,0.4-0.2,0.8-0.33,1.2c-0.95,3.12-2.61,4.55-5.51,4.55c-1.59,0-2.2-0.8-1.8-2.14C137.21,149.68,139.65,149.99,144.15,148.34
		L144.15,148.34z M155.72,158.91h9.43l7.2-23.63h8.29l2.57-8.43h-26.18l-2.57,8.43h8.45L155.72,158.91z M186.97,151.91
		c-0.79,1.25-2.15,1.96-3.82,1.96c-2.49,0-3.41-1.69-2.56-4.73h16.17l0.18-0.58c2.72-8.92-0.34-14.18-8.01-14.18
		c-7.72,0-13.97,4.95-16.38,12.89c-2.3,7.54,0.81,12.49,8.32,12.49c6.7,0,11.61-2.73,14.36-7.86H186.97z M182.03,144.42
		c0.98-2.81,2.86-4.41,5.1-4.41c2.45,0,3.31,1.47,2.58,4.41H182.03z M214.61,149.68c-0.91,2.32-2.42,3.52-4.42,3.52
		c-2.49,0-2.96-1.96-1.68-6.15c1.26-4.15,2.96-6.11,5.5-6.11c2,0,2.7,1.07,2.18,3.3h8.62c1.6-5.93-1.69-9.85-8.76-9.85
		c-7.68,0-13.84,4.81-16.23,12.66c-2.36,7.76,0.82,12.72,8.58,12.72c6.99,0,12.58-3.89,14.84-10.09H214.61z M223.97,158.91h8.62
		l3.72-12.22c0.98-3.21,2.52-4.77,4.68-4.77c2.37,0,2.49,1.47,1.5,4.73l-3.74,12.26h8.62l3.75-12.31c1.25-4.1,1.97-7,0.99-9.14
		c-0.89-1.92-2.68-2.85-5.46-2.85c-2.7,0-5.23,1.07-7.62,3.17l3.33-10.92h-8.62L223.97,158.91z M67.11,172.09l-0.17,0.49
		c-0.5,1.38-1.04,1.98-2.47,1.98c-1.82,0-1.41-1.13-0.48-3.72l0.07-0.21c0.88-2.44,1.29-3.5,3.09-3.5c1.36,0,1.55,0.62,1.06,2.04
		h4.21l0.04-0.1c0.97-2.68-0.56-4.03-4.63-4.03c-2.37,0-4.24,0.49-5.62,1.44c-1.22,0.84-1.85,2.26-2.61,4.35
		c-0.76,2.09-1.15,3.51-0.54,4.35c0.71,0.97,2.24,1.44,4.65,1.44c4.11,0,6.51-1.31,7.48-3.99c0.07-0.19,0.13-0.37,0.18-0.56H67.11z
		 M92.03,176.37h10.08l0.81-2.25h-5.76l0.87-2.41h5.32l0.8-2.22h-5.32l0.73-2.03h5.76l0.78-2.15H96.03L92.03,176.37z M124.16,176.37
		h4.09l2.72-8.54l-0.16,8.54h3.3l6.02-8.54l-3.46,8.54h4.09l4-11.06h-6.01l-3.31,4.66c-0.14,0.19-0.66,1.07-1.61,2.63
		c0.19-1.54,0.33-2.41,0.34-2.59l0.05-4.7h-6.06L124.16,176.37z M163.19,176.37h10.08l0.81-2.25h-5.76l0.87-2.41h5.32l0.8-2.22
		h-5.32l0.73-2.03h5.76l0.78-2.15h-10.08L163.19,176.37z M195.32,176.37h3.89l0.67-1.87c0.6-1.66,1.05-3.38,1.37-5.16l1.08,7.03
		h4.53l3.99-11.06h-3.87l-0.63,1.74c-0.44,1.2-0.9,2.89-1.42,5.08l-1.13-6.82h-4.51L195.32,176.37z M231.54,176.37h4.34l3.22-8.91
		h3.64l0.78-2.15h-11.46l-0.78,2.15h3.47L231.54,176.37z M48.68,205.52h1.48l3.07-12.84h4.27l0.26-1.13H47.24l-0.26,1.13h4.77
		L48.68,205.52z M56.59,205.52h1.29l1.2-5.05c0.68-2.78,2.05-4.24,4.49-4.24c1.35,0,2.16,0.56,2.16,1.59c0,0.21-0.04,0.54-0.15,0.99
		l-1.59,6.7h1.31l1.55-6.55c0.11-0.45,0.15-0.82,0.15-1.16c0-1.59-1.16-2.59-3.14-2.59c-1.39,0-2.68,0.54-3.9,1.65l1.26-5.32H59.9
		L56.59,205.52z M76.81,202.43c-0.57,1.52-1.81,2.33-3.53,2.33c-2.03,0-3.25-1.15-3.25-3.01c0-0.31,0.02-0.68,0.07-1.13h8.58
		c0.04-0.47,0.09-0.86,0.09-1.17c0-2.7-1.61-4.25-4.42-4.25c-3.27,0-5.67,2.58-5.67,6.26c0,2.78,1.63,4.32,4.49,4.32
		c2.53,0,4.29-1.19,4.93-3.34H76.81z M70.32,199.55c0.65-2.23,2.05-3.36,4.14-3.36c1.87,0,3.01,1.11,3.01,2.86
		c0,0.12,0,0.27-0.02,0.5H70.32z M86.03,205.52h9.89l0.22-1.09H87.7l1.31-5.6h7.34l0.26-1.15H89.3l1.18-4.99h7.45l0.3-1.15H89.3
		L86.03,205.52z M98.05,205.52h1.31l1.2-5.05c0.68-2.8,2.05-4.24,4.49-4.24c1.37,0,2.16,0.56,2.16,1.59c0,0.23-0.02,0.56-0.13,0.99
		l-1.61,6.7h1.29l1.57-6.55c0.11-0.45,0.15-0.82,0.15-1.16c0-1.59-1.18-2.59-3.16-2.59c-1.44,0-2.77,0.58-3.99,1.75l0.35-1.53h-1.22
		L98.05,205.52z M112.78,205.53c-2.68,0.63-4,1.4-4,2.62c0,1.45,1.74,2.69,4.55,2.69c3.44,0,5.57-1.31,5.57-2.92
		c0-1.49-1.31-2.1-3.94-2.78c-2.1-0.54-3.41-0.63-3.41-1.4c0-0.4,0.42-0.68,1.24-0.91c0.63-0.19,1.76-0.19,3.15-0.54
		c2.05-0.54,3.23-1.94,3.23-3.79c0-1.17-0.76-2.32-1.73-2.92c0.36-0.7,1.34-1.07,3.41-0.82l0.26-0.93
		c-2.54-0.62-3.74,0.02-4.79,1.03c-0.19,0.18-1.29,0.11-1.54,0.13c-2.87,0.22-4.41,1.71-4.41,4.02c0,1.45,0.79,2.5,2.34,3.21
		c-1.47,0.26-2.26,0.86-2.26,1.61C110.44,204.62,111.23,205.21,112.78,205.53L112.78,205.53z M114.4,201.65
		c-1.71,0-2.84-1.03-2.84-2.6c0-1.85,1.42-3.18,3.52-3.18c1.71,0,2.89,1.12,2.89,2.69C117.97,200.34,116.4,201.65,114.4,201.65
		L114.4,201.65z M114.01,205.88c2.47,0.54,3.68,1.03,3.68,2.1c0,1.14-1.6,2.05-4.26,2.05c-2.18,0-3.58-0.93-3.58-1.96
		C109.86,207.12,111.25,206.33,114.01,205.88L114.01,205.88z M120.23,205.52h1.29l2.4-10.08h-1.28L120.23,205.52z M123.04,193.14
		h1.5l0.37-1.59h-1.5L123.04,193.14z M124.59,205.52h1.31l1.2-5.05c0.67-2.8,2.05-4.24,4.49-4.24c1.37,0,2.16,0.56,2.16,1.59
		c0,0.23-0.02,0.56-0.13,0.99l-1.61,6.7h1.28l1.57-6.55c0.11-0.45,0.15-0.82,0.15-1.16c0-1.59-1.18-2.59-3.16-2.59
		c-1.44,0-2.77,0.58-3.99,1.75l0.35-1.53h-1.22L124.59,205.52z M144.83,202.43c-0.57,1.52-1.81,2.33-3.53,2.33
		c-2.03,0-3.25-1.15-3.25-3.01c0-0.31,0.02-0.68,0.07-1.13h8.59c0.04-0.47,0.09-0.86,0.09-1.17c0-2.7-1.61-4.25-4.42-4.25
		c-3.27,0-5.67,2.58-5.67,6.26c0,2.78,1.64,4.32,4.49,4.32c2.53,0,4.29-1.19,4.93-3.34H144.83z M138.34,199.55
		c0.65-2.23,2.05-3.36,4.14-3.36c1.87,0,3.01,1.11,3.01,2.86c0,0.12,0,0.27-0.02,0.5H138.34z M156.53,202.43
		c-0.57,1.52-1.81,2.33-3.53,2.33c-2.03,0-3.25-1.15-3.25-3.01c0-0.31,0.02-0.68,0.07-1.13h8.58c0.04-0.47,0.09-0.86,0.09-1.17
		c0-2.7-1.61-4.25-4.42-4.25c-3.27,0-5.67,2.58-5.67,6.26c0,2.78,1.63,4.32,4.49,4.32c2.53,0,4.29-1.19,4.93-3.34H156.53z
		 M150.04,199.55c0.65-2.23,2.05-3.36,4.14-3.36c1.87,0,3.01,1.11,3.01,2.86c0,0.12,0,0.27-0.02,0.5H150.04z M159.73,205.52h1.35
		l1.16-5.07c0.61-2.68,1.57-4.04,3.4-4.04c0.17,0,0.41,0.02,0.76,0.06l0.28-1.13c-0.3-0.1-0.61-0.16-0.91-0.16
		c-1,0-1.83,0.54-2.83,1.57l0.31-1.32h-1.2L159.73,205.52z M170.78,191.55h-1.26c-0.46,1.99-0.61,2.34-1.11,4.37l1.05,0.01
		L170.78,191.55z M172.57,202.37h-1.31c0.13,2.23,1.7,3.44,4.47,3.44c2.7,0,4.36-1.31,4.36-3c0-1.73-1.5-2.31-3.73-3.09
		c-1.55-0.54-2.42-0.91-2.42-1.92c0-0.99,1.05-1.69,2.48-1.69c1.92,0,2.9,0.68,3.05,2.14h1.22c-0.13-2.02-1.52-3.07-4.07-3.07
		c-2.48,0-3.96,1.15-3.96,2.76c0,1.42,1,2.04,3.03,2.74c1.87,0.64,3.07,0.99,3.07,2.12c0,1.26-1.07,2.04-2.92,2.04
		C173.83,204.84,172.74,204.02,172.57,202.37L172.57,202.37z M201.41,201.4H200c-0.76,2.14-2.68,3.4-4.77,3.4
		c-3.12,0-4.99-1.94-4.99-5.15c0-4.14,2.81-7.36,6.45-7.36c2.44,0,3.96,1.22,4.16,3.46h1.39c-0.17-2.89-2.18-4.57-5.47-4.57
		c-2.2,0-4.16,0.82-5.58,2.31c-1.55,1.65-2.46,3.88-2.46,6.16c0,3.87,2.33,6.24,6.41,6.24C197.93,205.89,200.52,204.24,201.41,201.4
		L201.41,201.4z M202.78,205.52h1.29l1.2-5.05c0.67-2.78,2.05-4.24,4.49-4.24c1.35,0,2.16,0.56,2.16,1.59
		c0,0.21-0.04,0.54-0.15,0.99l-1.59,6.7h1.31l1.55-6.55c0.11-0.45,0.15-0.82,0.15-1.16c0-1.59-1.15-2.59-3.14-2.59
		c-1.39,0-2.68,0.54-3.9,1.65l1.26-5.32h-1.31L202.78,205.52z M214.88,201.48c0,2.7,1.7,4.34,4.6,4.34c3.42,0,5.8-2.63,5.8-6.3
		c0-2.8-1.68-4.37-4.57-4.37C217.32,195.14,214.88,197.94,214.88,201.48L214.88,201.48z M220.61,196.14c2.16,0,3.29,1.13,3.29,3.32
		c0,2.95-1.87,5.34-4.4,5.34c-2.05,0-3.25-1.19-3.25-3.32C216.25,198.47,218.08,196.14,220.61,196.14L220.61,196.14z M226.44,205.52
		h1.29l2.4-10.08h-1.28L226.44,205.52z M229.26,193.14h1.5l0.37-1.59h-1.5L229.26,193.14z M239.78,202.16
		c-0.52,1.61-1.98,2.6-3.68,2.6c-2.18,0-3.44-1.26-3.44-3.34c0-2.88,1.87-5.25,4.44-5.25c1.9,0,3.09,0.99,3.16,2.62h1.24
		c-0.02-2.25-1.64-3.58-4.45-3.58c-3.38,0-5.75,2.7-5.75,6.22c0,2.74,1.79,4.36,4.75,4.36c2.53,0,4.49-1.35,5.12-3.64H239.78z
		 M251.13,202.43c-0.57,1.52-1.81,2.33-3.53,2.33c-2.03,0-3.25-1.15-3.25-3.01c0-0.31,0.02-0.68,0.07-1.13h8.58
		c0.04-0.47,0.09-0.86,0.09-1.17c0-2.7-1.61-4.25-4.42-4.25c-3.27,0-5.67,2.58-5.67,6.26c0,2.78,1.63,4.32,4.49,4.32
		c2.53,0,4.29-1.19,4.92-3.34H251.13z M244.64,199.55c0.65-2.23,2.05-3.36,4.14-3.36c1.87,0,3.01,1.11,3.01,2.86
		c0,0.12,0,0.27-0.02,0.5H244.64z M258.27,162.4H51.51c-1.68,8.41-5.69,16.55-9.78,16.9h206.76
		C250.17,170.88,254.18,162.74,258.27,162.4L258.27,162.4z M258.27,162.4"/>
	<rect x="116.59" y="69.16" fill-rule="evenodd" clip-rule="evenodd" fill="#663614" width="66.76" height="40.61"/>
	<path fill-rule="evenodd" clip-rule="evenodd" fill="#FCF9CE" d="M149.68,69.56c0.12,0,0.23,0,0.35,0
		c-0.05,3.68-0.14,11.52-0.2,19.45h0.01l-0.01,13.16l-2.17-13c-7.73,1.05-13.74,7.33-14.02,14.98h-16.41
		c-0.12-1.07-0.17-2.15-0.17-3.24C117.06,83.64,131.71,69.56,149.68,69.56L149.68,69.56z M147.35,89.13l2.55-18.08l-0.07,17.91
		L147.35,89.13z M132.42,75.23l7.83,16.94l9.48,11.29l-5.75-13.36L132.42,75.23z M120.33,89.71l14.57,9.49l14.76,4.4l-12.51-8.62
		L120.33,89.71z M120.33,89.71"/>
	<path fill-rule="evenodd" clip-rule="evenodd" fill="#FCF9CE" d="M152.31,89.17l-2.4-18.2l-0.12,17.96
		c0.44-0.01,0.85,0.06,1.22,0.13C151.49,89.15,151.93,89.24,152.31,89.17L152.31,89.17z M152.31,89.17"/>
	<path fill="#FCF9CE" d="M119.32,108.74h-0.54l0.27-0.73L119.32,108.74L119.32,108.74z M118.38,109.28h0.21l0.13-0.38h0.66
		l0.13,0.38h0.21l-0.56-1.47h-0.23L118.38,109.28L118.38,109.28z M120.38,107.97c0.2,0,0.35,0.05,0.45,0.14
		c0.09,0.09,0.14,0.24,0.14,0.43c0,0.2-0.05,0.34-0.14,0.44c-0.09,0.09-0.24,0.14-0.45,0.14h-0.24v-1.14H120.38L120.38,107.97z
		 M119.94,109.28h0.41c0.28,0,0.49-0.06,0.63-0.18c0.13-0.12,0.2-0.31,0.2-0.56c0-0.25-0.07-0.44-0.2-0.56
		c-0.13-0.12-0.34-0.18-0.63-0.18h-0.41V109.28L119.94,109.28z M121.49,109.28h0.2v-1.47h-0.2V109.28L121.49,109.28z M121.89,107.98
		h0.52v1.3h0.2v-1.3h0.52v-0.17h-1.24V107.98L121.89,107.98z M123.64,108.58v0.7h0.2v-0.7l0.52-0.77h-0.21l-0.4,0.61l-0.41-0.61
		h-0.21L123.64,108.58L123.64,108.58z"/>
	<path fill="#FCF9CE" d="M125.16,108.74h-0.54l0.27-0.73L125.16,108.74L125.16,108.74z M124.22,109.28h0.21l0.13-0.38h0.66
		l0.13,0.38h0.21l-0.56-1.47h-0.23L124.22,109.28L124.22,109.28z M126.94,108.58c0.11,0,0.19,0.02,0.24,0.07
		c0.05,0.04,0.08,0.11,0.08,0.2c0,0.09-0.03,0.16-0.08,0.2c-0.05,0.04-0.13,0.07-0.24,0.07h-0.32v-0.54H126.94L126.94,108.58z
		 M126.91,107.97c0.1,0,0.17,0.02,0.22,0.06c0.05,0.04,0.07,0.09,0.07,0.17c0,0.07-0.02,0.13-0.07,0.17
		c-0.05,0.04-0.12,0.05-0.22,0.05h-0.29v-0.44H126.91L126.91,107.97z M126.42,109.28h0.53c0.16,0,0.29-0.04,0.38-0.11
		c0.09-0.07,0.13-0.17,0.13-0.3c0-0.1-0.03-0.18-0.08-0.25c-0.05-0.07-0.13-0.11-0.23-0.13c0.08-0.01,0.14-0.05,0.19-0.1
		c0.04-0.05,0.06-0.12,0.06-0.21c0-0.12-0.04-0.21-0.12-0.27c-0.08-0.06-0.2-0.09-0.35-0.09h-0.51V109.28L126.42,109.28z
		 M127.8,109.28h0.2v-1.47h-0.2V109.28L127.8,109.28z M129.28,108.47c0.04-0.06,0.06-0.14,0.06-0.23c0-0.14-0.04-0.25-0.12-0.32
		c-0.08-0.07-0.21-0.11-0.38-0.11h-0.45v1.47h0.2v-0.62h0.22c0.08,0,0.14,0.02,0.19,0.05c0.05,0.03,0.09,0.1,0.14,0.2l0.19,0.38
		h0.21l-0.2-0.4c-0.04-0.08-0.08-0.15-0.12-0.2c-0.04-0.05-0.08-0.08-0.12-0.09C129.18,108.57,129.24,108.53,129.28,108.47
		L129.28,108.47z M128.85,107.97c0.1,0,0.17,0.02,0.22,0.07c0.05,0.04,0.07,0.11,0.07,0.19c0,0.09-0.02,0.15-0.07,0.2
		c-0.05,0.04-0.12,0.07-0.22,0.07h-0.25v-0.52H128.85L128.85,107.97z M129.8,109.28h0.92v-0.17H130v-1.3h-0.2V109.28L129.8,109.28z"
		/>
	<path fill="#FCF9CE" d="M131.73,108.74h-0.54l0.27-0.73L131.73,108.74L131.73,108.74z M130.79,109.28H131l0.13-0.38h0.66l0.13,0.38
		h0.21l-0.56-1.47h-0.23L130.79,109.28L130.79,109.28z M133.85,109.13c-0.06,0.01-0.12,0.02-0.19,0.02c-0.18,0-0.32-0.05-0.41-0.15
		c-0.09-0.1-0.14-0.25-0.14-0.45c0-0.2,0.05-0.35,0.14-0.45c0.09-0.1,0.23-0.15,0.41-0.15c0.09,0,0.18,0.02,0.26,0.05
		c0.08,0.03,0.16,0.08,0.23,0.14v-0.21c-0.07-0.05-0.15-0.08-0.24-0.1c-0.09-0.02-0.18-0.04-0.27-0.04c-0.23,0-0.41,0.07-0.54,0.2
		c-0.13,0.13-0.19,0.32-0.19,0.56c0,0.24,0.06,0.43,0.19,0.56c0.13,0.13,0.31,0.2,0.54,0.2c0.11,0,0.2-0.01,0.3-0.04
		c0.09-0.03,0.18-0.07,0.25-0.12v-0.63h-0.52v0.16H134v0.4C133.95,109.1,133.9,109.12,133.85,109.13L133.85,109.13z M135.44,108.47
		c0.04-0.06,0.06-0.14,0.06-0.23c0-0.14-0.04-0.25-0.12-0.32c-0.08-0.07-0.21-0.11-0.38-0.11h-0.45v1.47h0.2v-0.62h0.22
		c0.08,0,0.14,0.02,0.19,0.05c0.05,0.03,0.09,0.1,0.14,0.2l0.19,0.38h0.21l-0.2-0.4c-0.04-0.08-0.08-0.15-0.12-0.2
		c-0.04-0.05-0.08-0.08-0.12-0.09C135.34,108.57,135.4,108.53,135.44,108.47L135.44,108.47z M135.01,107.97
		c0.1,0,0.17,0.02,0.22,0.07c0.05,0.04,0.07,0.11,0.07,0.19c0,0.09-0.02,0.15-0.07,0.2c-0.05,0.04-0.12,0.07-0.22,0.07h-0.25v-0.52
		H135.01L135.01,107.97z M136.9,108.11c0.08,0.11,0.13,0.25,0.13,0.44c0,0.19-0.04,0.33-0.13,0.44c-0.08,0.11-0.2,0.16-0.34,0.16
		c-0.14,0-0.26-0.05-0.34-0.16c-0.09-0.11-0.13-0.25-0.13-0.44c0-0.19,0.04-0.33,0.13-0.44c0.09-0.11,0.2-0.16,0.34-0.16
		C136.7,107.95,136.82,108,136.9,108.11L136.9,108.11z M136.06,107.99c-0.12,0.14-0.19,0.32-0.19,0.56s0.06,0.42,0.19,0.56
		c0.12,0.14,0.29,0.21,0.5,0.21c0.21,0,0.37-0.07,0.49-0.21c0.12-0.14,0.19-0.32,0.19-0.56c0-0.23-0.06-0.42-0.19-0.56
		c-0.12-0.14-0.29-0.21-0.49-0.21C136.35,107.78,136.18,107.85,136.06,107.99L136.06,107.99z M137.53,108.73
		c0,0.19,0.05,0.34,0.14,0.43c0.09,0.1,0.24,0.15,0.42,0.15c0.19,0,0.33-0.05,0.42-0.15c0.09-0.1,0.14-0.24,0.14-0.43v-0.92h-0.2
		v0.89c0,0.16-0.03,0.27-0.09,0.34c-0.06,0.07-0.15,0.1-0.28,0.1c-0.13,0-0.22-0.03-0.28-0.1c-0.06-0.07-0.09-0.18-0.09-0.34v-0.89
		h-0.2V108.73L137.53,108.73z M139.47,107.97c0.09,0,0.16,0.02,0.21,0.07c0.05,0.05,0.08,0.12,0.08,0.2c0,0.09-0.03,0.16-0.08,0.2
		c-0.05,0.05-0.12,0.07-0.21,0.07h-0.25v-0.55H139.47L139.47,107.97z M139.03,109.28h0.2v-0.59h0.25c0.16,0,0.29-0.04,0.37-0.11
		c0.08-0.07,0.13-0.18,0.13-0.33c0-0.14-0.04-0.25-0.13-0.33c-0.08-0.07-0.21-0.11-0.37-0.11h-0.45V109.28L139.03,109.28z"/>
	<path fill-rule="evenodd" clip-rule="evenodd" fill="#FCF9CE" d="M183.27,69.16h-33.53l0.07,34.41l16.34,0.28v-1.19
		c-0.91-7.76-7.85-13.6-16.17-13.65c-0.06-7.93-0.15-15.78-0.2-19.45c0.12,0,0.23,0,0.35,0c17.97,0,32.62,14.08,32.62,31.35
		c0,1.09-0.06,2.18-0.17,3.24h-0.08v-0.01l0.79,0.01V69.16z M179.47,89.71l-14.53,9.27l-15.15,4.6l11.94-8.32L179.47,89.71z
		 M167.38,75.23l-7.56,16.94l-10.05,11.39l6.04-13.46L167.38,75.23z M152.15,89.07l-2.33,14.37l0.14-14.5L152.15,89.07z
		 M152.15,89.07"/>
	<rect x="116.59" y="69.16" fill-rule="evenodd" clip-rule="evenodd" fill="#663614" width="66.76" height="40.61"/>
	<path fill-rule="evenodd" clip-rule="evenodd" fill="#FCF9CE" d="M150.07,69.2l-0.04,0.37c-0.08,6.48-0.16,12.96-0.2,19.45h0.01
		l-0.04,14.64l-2.14-14.48c-7.73,1.05-13.74,7.33-14.02,14.98h-16.1l-0.87-0.01c-0.02,0,0-0.09,0.01-0.21
		C118.08,85.92,130,69.88,150.07,69.2L150.07,69.2z M147.36,89.2l2.58-18.88l0.08-0.55l-0.19,19.19L147.36,89.2z M132.63,75.55
		l7.62,16.62l9.54,11.5l-5.81-13.57L132.63,75.55z M120.59,89.84l14.31,9.36l14.88,4.5l-12.62-8.72L120.59,89.84z M120.59,89.84"/>
	<path fill-rule="evenodd" clip-rule="evenodd" fill="#FCF9CE" d="M152.31,89.17l-2.18-19.61l-0.34,19.37
		C150.92,88.9,152.23,89.12,152.31,89.17L152.31,89.17z M152.31,89.17"/>
	<path fill="#FCF9CE" d="M117.99,108.64h-0.54l0.27-0.73L117.99,108.64L117.99,108.64z M117.04,109.18h0.21l0.13-0.38h0.66
		l0.13,0.38h0.21l-0.56-1.47h-0.23L117.04,109.18L117.04,109.18z M119.04,107.88c0.2,0,0.35,0.05,0.45,0.14
		c0.09,0.09,0.14,0.24,0.14,0.43c0,0.2-0.05,0.34-0.14,0.44c-0.09,0.09-0.24,0.14-0.45,0.14h-0.24v-1.14H119.04L119.04,107.88z
		 M118.6,109.18h0.41c0.28,0,0.49-0.06,0.63-0.18c0.13-0.12,0.2-0.31,0.2-0.56c0-0.25-0.07-0.44-0.2-0.56
		c-0.13-0.12-0.34-0.18-0.63-0.18h-0.41V109.18L118.6,109.18z M120.16,109.18h0.2v-1.47h-0.2V109.18L120.16,109.18z M120.55,107.88
		h0.52v1.3h0.2v-1.3h0.52v-0.17h-1.24V107.88L120.55,107.88z M122.3,108.48v0.7h0.2v-0.7l0.52-0.77h-0.21l-0.4,0.61l-0.41-0.61
		h-0.21L122.3,108.48L122.3,108.48z"/>
	<path fill="#FCF9CE" d="M123.82,108.64h-0.54l0.27-0.73L123.82,108.64L123.82,108.64z M122.88,109.18h0.21l0.13-0.38h0.66
		l0.13,0.38h0.21l-0.56-1.47h-0.23L122.88,109.18L122.88,109.18z"/>
	<path fill="#FCF9CE" d="M143.82,108.48c0.11,0,0.19,0.02,0.24,0.07c0.05,0.04,0.08,0.11,0.08,0.2c0,0.09-0.03,0.16-0.08,0.2
		c-0.05,0.04-0.13,0.07-0.24,0.07h-0.32v-0.54H143.82L143.82,108.48z M143.8,107.88c0.1,0,0.17,0.02,0.22,0.06
		c0.05,0.04,0.07,0.09,0.07,0.17c0,0.07-0.02,0.13-0.07,0.17c-0.05,0.04-0.12,0.05-0.22,0.05h-0.29v-0.44H143.8L143.8,107.88z
		 M143.3,109.18h0.53c0.16,0,0.29-0.04,0.38-0.11c0.09-0.07,0.13-0.17,0.13-0.3c0-0.1-0.03-0.18-0.08-0.25
		c-0.05-0.07-0.13-0.11-0.23-0.13c0.08-0.01,0.14-0.05,0.19-0.1c0.04-0.05,0.06-0.12,0.06-0.21c0-0.12-0.04-0.21-0.12-0.27
		c-0.08-0.06-0.2-0.09-0.35-0.09h-0.51V109.18L143.3,109.18z M144.69,109.18h0.2v-1.47h-0.2V109.18L144.69,109.18z M146.17,108.37
		c0.04-0.06,0.06-0.14,0.06-0.23c0-0.14-0.04-0.25-0.12-0.32c-0.08-0.07-0.21-0.11-0.38-0.11h-0.45v1.47h0.2v-0.62h0.22
		c0.08,0,0.14,0.02,0.19,0.05c0.05,0.03,0.09,0.1,0.14,0.2l0.19,0.38h0.21l-0.2-0.4c-0.04-0.08-0.08-0.15-0.12-0.2
		c-0.04-0.05-0.08-0.08-0.12-0.09C146.06,108.47,146.12,108.43,146.17,108.37L146.17,108.37z M145.73,107.88
		c0.1,0,0.17,0.02,0.22,0.07c0.05,0.04,0.07,0.11,0.07,0.19c0,0.09-0.02,0.15-0.07,0.2c-0.05,0.04-0.12,0.07-0.22,0.07h-0.25v-0.52
		H145.73L145.73,107.88z M146.68,109.18h0.92v-0.17h-0.72v-1.3h-0.2V109.18L146.68,109.18z"/>
	<path fill="#FCF9CE" d="M148.62,108.64h-0.54l0.27-0.73L148.62,108.64L148.62,108.64z M147.67,109.18h0.21l0.13-0.38h0.66
		l0.13,0.38h0.21l-0.56-1.47h-0.23L147.67,109.18L147.67,109.18z"/>
	<path fill="#FCF9CE" d="M165.41,109.13c-0.06,0.01-0.12,0.02-0.19,0.02c-0.18,0-0.32-0.05-0.41-0.15c-0.09-0.1-0.14-0.25-0.14-0.45
		c0-0.2,0.05-0.35,0.14-0.45c0.09-0.1,0.23-0.15,0.41-0.15c0.09,0,0.18,0.02,0.26,0.05c0.08,0.03,0.16,0.08,0.23,0.14v-0.21
		c-0.07-0.05-0.15-0.08-0.24-0.1c-0.09-0.02-0.18-0.04-0.27-0.04c-0.23,0-0.41,0.07-0.54,0.2c-0.13,0.13-0.19,0.32-0.19,0.56
		c0,0.24,0.06,0.43,0.19,0.56c0.13,0.13,0.31,0.2,0.54,0.2c0.11,0,0.2-0.01,0.3-0.04c0.09-0.03,0.18-0.07,0.25-0.12v-0.63h-0.52
		v0.16h0.33v0.4C165.52,109.1,165.47,109.12,165.41,109.13L165.41,109.13z M167.01,108.47c0.04-0.06,0.06-0.14,0.06-0.23
		c0-0.14-0.04-0.25-0.12-0.32c-0.08-0.07-0.21-0.11-0.38-0.11h-0.45v1.47h0.2v-0.62h0.22c0.08,0,0.14,0.02,0.19,0.05
		c0.05,0.03,0.09,0.1,0.14,0.2l0.19,0.38h0.21l-0.2-0.4c-0.04-0.08-0.08-0.15-0.12-0.2c-0.04-0.05-0.08-0.08-0.12-0.09
		C166.9,108.57,166.96,108.53,167.01,108.47L167.01,108.47z M166.57,107.97c0.1,0,0.17,0.02,0.22,0.07
		c0.05,0.04,0.07,0.11,0.07,0.19c0,0.09-0.02,0.15-0.07,0.2c-0.05,0.04-0.12,0.07-0.22,0.07h-0.25v-0.52H166.57L166.57,107.97z
		 M168.46,108.11c0.08,0.11,0.13,0.25,0.13,0.44c0,0.19-0.04,0.33-0.13,0.44c-0.08,0.11-0.2,0.16-0.34,0.16
		c-0.14,0-0.26-0.05-0.34-0.16c-0.09-0.11-0.13-0.25-0.13-0.44c0-0.19,0.04-0.33,0.13-0.44c0.09-0.11,0.2-0.16,0.34-0.16
		C168.27,107.95,168.38,108,168.46,108.11L168.46,108.11z M167.62,107.99c-0.12,0.14-0.19,0.32-0.19,0.56s0.06,0.42,0.19,0.56
		c0.12,0.14,0.29,0.21,0.5,0.21c0.21,0,0.37-0.07,0.49-0.21c0.12-0.14,0.19-0.32,0.19-0.56c0-0.23-0.06-0.42-0.19-0.56
		c-0.12-0.14-0.29-0.21-0.49-0.21C167.91,107.78,167.75,107.85,167.62,107.99L167.62,107.99z M169.09,108.73
		c0,0.19,0.05,0.34,0.14,0.43c0.09,0.1,0.24,0.15,0.42,0.15c0.19,0,0.33-0.05,0.42-0.15c0.09-0.1,0.14-0.24,0.14-0.43v-0.92h-0.2
		v0.89c0,0.16-0.03,0.27-0.09,0.34c-0.06,0.07-0.15,0.1-0.28,0.1c-0.13,0-0.22-0.03-0.28-0.1c-0.06-0.07-0.09-0.18-0.09-0.34v-0.89
		h-0.2V108.73L169.09,108.73z M171.04,107.97c0.09,0,0.16,0.02,0.21,0.07c0.05,0.05,0.08,0.12,0.08,0.2c0,0.09-0.03,0.16-0.08,0.2
		c-0.05,0.05-0.12,0.07-0.21,0.07h-0.25v-0.55H171.04L171.04,107.97z M170.59,109.28h0.2v-0.59h0.25c0.16,0,0.29-0.04,0.37-0.11
		c0.08-0.07,0.13-0.18,0.13-0.33c0-0.14-0.04-0.25-0.13-0.33c-0.08-0.07-0.21-0.11-0.37-0.11h-0.45V109.28L170.59,109.28z"/>
	<path fill-rule="evenodd" clip-rule="evenodd" fill="#FCF9CE" d="M183.41,69.16l-33.16,0.01c2.71,0.16,4.67,0.34,7.11,0.95
		c11.23,2.81,19.5,12.05,23.15,20.98c1.35,3.3,2.07,6.44,2.58,9.92c0.07,0.44,0.24,2.82,0.24,2.69l0.06-0.02L183.41,69.16z
		 M149.8,103.7l16.68,0.01c0.01-7.76-7.02-13.61-14.27-14.54l-0.01,0.03l-2.39,14.44l0.02-14.68l0.01,0v0l-0.01,0
		C149.73,95.65,149.82,102.05,149.8,103.7L149.8,103.7z M150.13,69.56C150.21,69.56,150.12,69.56,150.13,69.56L150.13,69.56z
		 M179.66,90.13l-14.4,8.85l-15.46,4.72l13.3-8.77L179.66,90.13z M167.7,75.36l-7.67,16.81l-10.24,11.52l6.15-13.59L167.7,75.36z
		 M167.7,75.36"/>
</g>
</svg>
